<svg width="35" height="60" viewBox="0 0 35 60" fill="none" xmlns="http://www.w3.org/2000/svg">
<path opacity="0.75" d="M26.4645 1.46447C28.4171 -0.488155 31.5829 -0.488155 33.5355 1.46447C35.4882 3.41709 35.4882 6.58291 33.5355 8.53553L26.4645 1.46447ZM5 30L1.46447 33.5355C-0.488155 31.5829 -0.488155 28.4171 1.46447 26.4645L5 30ZM33.5355 51.4645C35.4882 53.4171 35.4882 56.5829 33.5355 58.5355C31.5829 60.4882 28.4171 60.4882 26.4645 58.5355L33.5355 51.4645ZM33.5355 8.53553L8.53553 33.5355L1.46447 26.4645L26.4645 1.46447L33.5355 8.53553ZM8.53553 26.4645L33.5355 51.4645L26.4645 58.5355L1.46447 33.5355L8.53553 26.4645Z" fill="#242324"/>
</svg>
