<svg width="41" height="41" viewBox="0 0 41 41" fill="none" xmlns="http://www.w3.org/2000/svg">
<path fill-rule="evenodd" clip-rule="evenodd" d="M6.83076 30.899L7.26706 29.8562L6.59882 28.9446C4.62375 26.2501 3.47089 22.9766 3.47089 19.4457C3.47089 10.3685 11.1526 2.875 20.7983 2.875C30.444 2.875 38.1257 10.3685 38.1257 19.4457C38.1257 28.523 30.444 36.0165 20.7983 36.0165C17.5615 36.0165 14.5408 35.1694 11.9571 33.7001L11.0551 33.1872L10.1164 33.6292L4.6019 36.2257L6.83076 30.899ZM0.75 40.25L3.44997 38.9787L10.9684 35.4386C13.8484 37.0764 17.2091 38.0165 20.7983 38.0165C31.4725 38.0165 40.1257 29.7021 40.1257 19.4457C40.1257 9.1894 31.4725 0.875 20.7983 0.875C10.1241 0.875 1.47089 9.1894 1.47089 19.4457C1.47089 23.4217 2.77131 27.1059 4.98576 30.127L1.90194 37.497L0.75 40.25ZM13.125 22.25C14.3676 22.25 15.375 21.2426 15.375 20C15.375 18.7574 14.3676 17.75 13.125 17.75C11.8824 17.75 10.875 18.7574 10.875 20C10.875 21.2426 11.8824 22.25 13.125 22.25ZM23.25 20C23.25 21.2426 22.2426 22.25 21 22.25C19.7574 22.25 18.75 21.2426 18.75 20C18.75 18.7574 19.7574 17.75 21 17.75C22.2426 17.75 23.25 18.7574 23.25 20ZM28.875 22.25C30.1176 22.25 31.125 21.2426 31.125 20C31.125 18.7574 30.1176 17.75 28.875 17.75C27.6324 17.75 26.625 18.7574 26.625 20C26.625 21.2426 27.6324 22.25 28.875 22.25Z" fill="black"/>
</svg>
