<svg width="25" height="22" viewBox="0 0 25 22" fill="none" xmlns="http://www.w3.org/2000/svg">
<path fill-rule="evenodd" clip-rule="evenodd" d="M5 2H20C21.1603 2 22.1668 2.65874 22.6658 3.62264L12.5405 10.7818L2.27137 3.75143C2.74507 2.7179 3.7887 2 5 2ZM2 5.98944V16.3532C2 18.01 3.34315 19.3532 5 19.3532H20C21.6569 19.3532 23 18.01 23 16.3532V5.8358L13.1271 12.8165L12.559 13.2182L11.9848 12.8252L2 5.98944ZM0 5.00001C0 2.23858 2.23858 0 5 0H20C22.7614 0 25 2.23858 25 5V16.3532C25 19.1146 22.7614 21.3532 20 21.3532H5C2.23858 21.3532 0 19.1146 0 16.3532V5.00001Z" fill="black"/>
</svg>
