<svg width="21" height="25" viewBox="0 0 21 25" fill="none" xmlns="http://www.w3.org/2000/svg">
<mask id="path-1-inside-1_298_247" fill="white">
<path fill-rule="evenodd" clip-rule="evenodd" d="M19.0095 13.5964C16.9744 16.1402 10.1831 24.912 10.1831 24.912C10.1831 24.912 4.03676 17.1051 1.35677 13.5964C-1.32321 10.0876 -0.82037 0 10.1831 0C21.1867 0 21.0447 11.0525 19.0095 13.5964ZM10.1322 13.3332C12.2741 13.3332 14.0105 11.5659 14.0105 9.38587C14.0105 7.20582 12.2741 5.43854 10.1322 5.43854C7.99028 5.43854 6.25391 7.20582 6.25391 9.38587C6.25391 11.5659 7.99028 13.3332 10.1322 13.3332Z"/>
</mask>
<path d="M10.1831 24.912L8.61171 26.1492L10.1964 28.162L11.7646 26.1364L10.1831 24.912ZM1.35677 13.5964L2.94618 12.3824H2.94618L1.35677 13.5964ZM10.1831 24.912C11.7646 26.1364 11.7646 26.1364 11.7647 26.1363C11.7647 26.1362 11.7648 26.1361 11.7649 26.136C11.7651 26.1357 11.7654 26.1354 11.7658 26.1348C11.7666 26.1338 11.7678 26.1322 11.7695 26.1301C11.7727 26.1259 11.7776 26.1196 11.784 26.1113C11.7969 26.0946 11.8161 26.0699 11.8412 26.0375C11.8913 25.9727 11.9652 25.8773 12.06 25.755C12.2495 25.5104 12.5225 25.158 12.8566 24.7272C13.5247 23.8656 14.4367 22.6903 15.4121 21.4357C17.3673 18.9209 19.5643 16.1044 20.5712 14.8458L17.4478 12.3469C16.4196 13.6321 14.2034 16.4735 12.2542 18.9805C11.2774 20.2369 10.3644 21.4136 9.69554 22.2762C9.36111 22.7075 9.08771 23.0603 8.89789 23.3053C8.80298 23.4278 8.72896 23.5233 8.67866 23.5883C8.65351 23.6208 8.63428 23.6456 8.62134 23.6623C8.61487 23.6707 8.60997 23.677 8.60668 23.6812C8.60503 23.6834 8.6038 23.685 8.60296 23.686C8.60255 23.6866 8.60223 23.687 8.60203 23.6873C8.60192 23.6874 8.60184 23.6875 8.60179 23.6876C8.60173 23.6876 8.6017 23.6877 10.1831 24.912ZM-0.232636 14.8104C1.11569 16.5756 3.32938 19.4136 5.20023 21.803C6.13688 22.9992 6.98964 24.0856 7.60822 24.873C7.91752 25.2667 8.16832 25.5856 8.34182 25.8062C8.42857 25.9165 8.496 26.0022 8.54177 26.0603C8.56465 26.0894 8.58212 26.1116 8.59387 26.1265C8.59975 26.134 8.6042 26.1397 8.60719 26.1435C8.60868 26.1454 8.60981 26.1468 8.61056 26.1478C8.61094 26.1482 8.61123 26.1486 8.61142 26.1488C8.61151 26.149 8.61159 26.1491 8.61164 26.1491C8.61169 26.1492 8.61171 26.1492 10.1831 24.912C11.7546 23.6749 11.7545 23.6748 11.7545 23.6748C11.7545 23.6747 11.7544 23.6746 11.7543 23.6745C11.7541 23.6743 11.7538 23.6739 11.7535 23.6735C11.7527 23.6725 11.7516 23.6711 11.7502 23.6693C11.7472 23.6655 11.7428 23.6599 11.737 23.6525C11.7253 23.6377 11.7079 23.6156 11.6852 23.5867C11.6396 23.5287 11.5723 23.4433 11.4858 23.3333C11.3127 23.1132 11.0624 22.7948 10.7536 22.4018C10.136 21.6157 9.28461 20.5311 8.34967 19.337C6.47733 16.9457 4.27784 14.1258 2.94618 12.3824L-0.232636 14.8104ZM10.1831 -2C7.12338 -2 4.63531 -1.29621 2.70168 -0.0501516C0.763719 1.19869 -0.500804 2.91803 -1.22219 4.74941C-2.61134 8.27601 -2.05086 12.4299 -0.232636 14.8104L2.94618 12.3824C2.08442 11.2541 1.55633 8.60978 2.49949 6.21539C2.94425 5.08628 3.7011 4.06441 4.86841 3.31218C6.04005 2.55716 7.74115 2 10.1831 2V-2ZM20.5712 14.8458C21.431 13.7711 21.8843 12.1517 22.028 10.581C22.1785 8.93727 22.0221 7.02438 21.3722 5.17964C20.7173 3.32081 19.5455 1.49462 17.6551 0.140713C15.7587 -1.21747 13.2793 -2 10.1831 -2V2C12.5888 2 14.2179 2.59904 15.326 3.39269C16.4401 4.19063 17.1688 5.28656 17.5995 6.50884C18.0351 7.74521 18.1494 9.07242 18.0447 10.2165C17.9333 11.4336 17.6056 12.1497 17.4478 12.3469L20.5712 14.8458ZM12.0105 9.38587C12.0105 10.4948 11.1364 11.3332 10.1322 11.3332V15.3332C13.4118 15.3332 16.0105 12.6371 16.0105 9.38587H12.0105ZM10.1322 7.43854C11.1364 7.43854 12.0105 8.27698 12.0105 9.38587H16.0105C16.0105 6.13466 13.4118 3.43854 10.1322 3.43854V7.43854ZM8.25391 9.38587C8.25391 8.27698 9.12797 7.43854 10.1322 7.43854V3.43854C6.85259 3.43854 4.25391 6.13466 4.25391 9.38587H8.25391ZM10.1322 11.3332C9.12797 11.3332 8.25391 10.4948 8.25391 9.38587H4.25391C4.25391 12.6371 6.85259 15.3332 10.1322 15.3332V11.3332Z" fill="black" mask="url(#path-1-inside-1_298_247)"/>
</svg>
