<svg width="25" height="24" viewBox="0 0 25 24" fill="none" xmlns="http://www.w3.org/2000/svg">
<path fill-rule="evenodd" clip-rule="evenodd" d="M3.61723 11.1386C6.54393 14.5726 9.8201 17.7178 13.3972 20.5275L14.3192 21.2516C15.9748 22.552 18.3873 22.4365 19.8998 20.9845L22.2824 18.6972L17.7529 14.3491L14.356 17.6101L6.64242 10.2052L10.0508 6.95493L5.52367 2.60892L3.14117 4.89612C1.62864 6.34815 1.50831 8.66421 2.86284 10.2535L3.61723 11.1386ZM12.1803 21.9552C8.50436 19.0679 5.13757 15.8358 2.12996 12.3069L1.37555 11.4218C-0.604132 9.09887 -0.428262 5.71385 1.78235 3.59166L5.52367 0L12.7729 6.9593L9.36459 10.2096L14.356 15.0013L17.7529 11.7402L25 18.6972L21.2587 22.2889C19.048 24.4111 15.522 24.58 13.1024 22.6795L12.1803 21.9552Z" fill="black"/>
</svg>
