<svg width="108" height="81" viewBox="0 0 108 81" fill="none" xmlns="http://www.w3.org/2000/svg">
<path fill-rule="evenodd" clip-rule="evenodd" d="M60.02 6.1799C56.5734 2.6599 51 0.899902 43.3 0.899902H22.4C14.7 0.899902 9.09002 2.6599 5.57002 6.1799C2.12336 9.62657 0.400024 15.1999 0.400024 22.8999V58.0999C0.400024 65.7999 2.12336 71.4099 5.57002 74.9299C9.09002 78.3766 14.7 80.0999 22.4 80.0999H43.3C51 80.0999 56.5734 78.3766 60.02 74.9299C63.54 71.4099 65.3 65.7999 65.3 58.0999V22.8999C65.3 15.1999 63.54 9.62657 60.02 6.1799ZM6.27717 74.2228C9.52913 77.4016 14.8248 79.0999 22.4 79.0999H43.3C50.8836 79.0999 56.1378 77.398 59.3129 74.2228C62.5647 70.971 64.3 65.6762 64.3 58.0999V22.8999C64.3 15.3212 62.5637 10.0701 59.3204 6.89441L59.3129 6.88705L59.3055 6.87953C56.1298 3.63625 50.8787 1.8999 43.3 1.8999H22.4C14.8237 1.8999 9.52888 3.63526 6.27713 6.88701C3.10198 10.0622 1.40002 15.3164 1.40002 22.8999V58.0999C1.40002 65.6751 3.09834 70.9708 6.27717 74.2228ZM44.5571 17.2428C45.9108 18.5965 46.5 20.5458 46.5 22.8999V58.0999C46.5 60.454 45.9108 62.4033 44.5571 63.757C43.2035 65.1107 41.2542 65.6999 38.9 65.6999H26.8C24.4459 65.6999 22.4966 65.1107 21.1429 63.757C19.7892 62.4033 19.2 60.454 19.2 58.0999V22.8999C19.2 20.5458 19.7892 18.5965 21.1429 17.2428C22.4966 15.8891 24.4459 15.2999 26.8 15.2999H38.9C41.2542 15.2999 43.2035 15.8891 44.5571 17.2428ZM87.8414 78.9999H107.641V1.9999H90.0414L69.6914 10.7999L75.1914 23.4499L87.8414 19.0499V78.9999ZM75.7388 22.2008L88.8414 17.6433V77.9999H106.641V2.9999H90.2484L71.008 11.3201L75.7388 22.2008ZM38.9 16.2999C43.3 16.2999 45.5 18.4999 45.5 22.8999V58.0999C45.5 62.4999 43.3 64.6999 38.9 64.6999H26.8C22.4 64.6999 20.2 62.4999 20.2 58.0999V22.8999C20.2 18.4999 22.4 16.2999 26.8 16.2999H38.9Z" fill="black"/>
</svg>
