<svg width="134" height="81" viewBox="0 0 134 81" fill="none" xmlns="http://www.w3.org/2000/svg">
<path fill-rule="evenodd" clip-rule="evenodd" d="M60.0199 6.1799C56.5732 2.6599 50.9999 0.899902 43.2999 0.899902H22.3999C14.6999 0.899902 9.0899 2.6599 5.5699 6.1799C2.12324 9.62657 0.399902 15.1999 0.399902 22.8999V58.0999C0.399902 65.7999 2.12324 71.4099 5.5699 74.9299C9.0899 78.3766 14.6999 80.0999 22.3999 80.0999H43.2999C50.9999 80.0999 56.5732 78.3766 60.0199 74.9299C63.5399 71.4099 65.2999 65.7999 65.2999 58.0999V22.8999C65.2999 15.1999 63.5399 9.62657 60.0199 6.1799ZM6.27705 74.2228C9.52901 77.4016 14.8247 79.0999 22.3999 79.0999H43.2999C50.8834 79.0999 56.1376 77.398 59.3128 74.2228C62.5646 70.971 64.2999 65.6762 64.2999 58.0999V22.8999C64.2999 15.3212 62.5636 10.0701 59.3203 6.89441L59.3128 6.88705L59.3054 6.87953C56.1297 3.63625 50.8786 1.8999 43.2999 1.8999H22.3999C14.8236 1.8999 9.52876 3.63526 6.27701 6.88701C3.10185 10.0622 1.3999 15.3164 1.3999 22.8999V58.0999C1.3999 65.6751 3.09821 70.9708 6.27705 74.2228ZM44.557 17.2428C45.9107 18.5965 46.4999 20.5458 46.4999 22.8999V58.0999C46.4999 60.454 45.9107 62.4033 44.557 63.757C43.2033 65.1107 41.254 65.6999 38.8999 65.6999H26.7999C24.4458 65.6999 22.4965 65.1107 21.1428 63.757C19.7891 62.4033 19.1999 60.454 19.1999 58.0999V22.8999C19.1999 20.5458 19.7891 18.5965 21.1428 17.2428C22.4965 15.8891 24.4458 15.2999 26.7999 15.2999H38.8999C41.254 15.2999 43.2033 15.8891 44.557 17.2428ZM126.231 6.9499C122.858 3.6499 117.578 1.9999 110.391 1.9999H72.9913V17.3999H104.891C109.291 17.3999 111.491 19.5999 111.491 23.9999V26.1999C111.491 30.5999 109.291 32.7999 104.891 32.7999H83.9913V48.1999H107.091C111.491 48.1999 113.691 50.3999 113.691 54.7999V59.1999C113.691 60.8866 113.178 62.2432 112.151 63.2699C111.198 64.2232 109.878 64.6999 108.191 64.6999C100.363 64.6999 88.5966 64.1724 72.8913 63.1174C72.5597 63.0952 72.2264 63.0726 71.8913 63.0499V77.8999C86.778 79.3666 100.345 80.0999 112.591 80.0999C119.778 80.0999 125.058 78.4132 128.431 75.0399C131.805 71.6666 133.491 66.3866 133.491 59.1999V58.0999C133.491 55.0932 133.125 52.4532 132.391 50.1799C130.455 44.438 126.938 40.6413 121.841 38.7898C121.34 38.6077 120.823 38.4444 120.291 38.2999C120.813 38.126 121.318 37.9319 121.807 37.7177C124.41 36.5768 126.544 34.8643 128.211 32.5799C130.265 29.7932 131.291 26.1999 131.291 21.7999C131.291 15.1266 129.605 10.1766 126.231 6.9499ZM131.442 50.4931C129.411 44.4757 125.616 40.7822 120.029 39.2649L116.836 38.3976L119.975 37.3512C123.085 36.3145 125.551 34.5296 127.404 31.9904L127.406 31.9867C129.302 29.4135 130.291 26.0447 130.291 21.7999C130.291 15.2806 128.644 10.6417 125.54 7.67254L125.532 7.66478C122.423 4.62357 117.45 2.9999 110.391 2.9999H73.9913V16.3999H104.891C107.245 16.3999 109.195 16.9891 110.548 18.3428C111.902 19.6965 112.491 21.6458 112.491 23.9999V26.1999C112.491 28.554 111.902 30.5033 110.548 31.857C109.195 33.2107 107.245 33.7999 104.891 33.7999H84.9913V47.1999H107.091C109.445 47.1999 111.395 47.7891 112.748 49.1428C114.102 50.4965 114.691 52.4458 114.691 54.7999V59.1999C114.691 61.1054 114.103 62.7324 112.858 63.977C111.673 65.1623 110.073 65.6999 108.191 65.6999C100.34 65.6999 88.5683 65.172 72.8913 64.1197V76.9928C87.3983 78.3982 100.631 79.0999 112.591 79.0999C119.645 79.0999 124.615 77.4421 127.724 74.3328C130.833 71.2235 132.491 66.2539 132.491 59.1999V58.0999C132.491 55.1746 132.135 52.6441 131.442 50.4931ZM38.8999 16.2999C43.2999 16.2999 45.4999 18.4999 45.4999 22.8999V58.0999C45.4999 62.4999 43.2999 64.6999 38.8999 64.6999H26.7999C22.3999 64.6999 20.1999 62.4999 20.1999 58.0999V22.8999C20.1999 18.4999 22.3999 16.2999 26.7999 16.2999H38.8999Z" fill="black"/>
</svg>
