<svg width="141" height="81" viewBox="0 0 141 81" fill="none" xmlns="http://www.w3.org/2000/svg">
<path fill-rule="evenodd" clip-rule="evenodd" d="M60.0199 6.1799C56.5732 2.6599 50.9999 0.899902 43.2999 0.899902H22.3999C14.6999 0.899902 9.0899 2.6599 5.5699 6.1799C2.12324 9.62657 0.399902 15.1999 0.399902 22.8999V58.0999C0.399902 65.7999 2.12324 71.4099 5.5699 74.9299C9.0899 78.3766 14.6999 80.0999 22.3999 80.0999H43.2999C50.9999 80.0999 56.5732 78.3766 60.0199 74.9299C63.5399 71.4099 65.2999 65.7999 65.2999 58.0999V22.8999C65.2999 15.1999 63.5399 9.62657 60.0199 6.1799ZM6.27705 74.2228C9.52901 77.4016 14.8247 79.0999 22.3999 79.0999H43.2999C50.8834 79.0999 56.1376 77.398 59.3128 74.2228C62.5646 70.971 64.2999 65.6762 64.2999 58.0999V22.8999C64.2999 15.3212 62.5636 10.0701 59.3203 6.89441L59.3128 6.88705L59.3054 6.87953C56.1297 3.63625 50.8786 1.8999 43.2999 1.8999H22.3999C14.8236 1.8999 9.52876 3.63526 6.27701 6.88701C3.10185 10.0622 1.3999 15.3164 1.3999 22.8999V58.0999C1.3999 65.6751 3.09821 70.9708 6.27705 74.2228ZM44.557 17.2428C45.9107 18.5965 46.4999 20.5458 46.4999 22.8999V58.0999C46.4999 60.454 45.9107 62.4033 44.557 63.757C43.2033 65.1107 41.254 65.6999 38.8999 65.6999H26.7999C24.4458 65.6999 22.4965 65.1107 21.1428 63.757C19.7891 62.4033 19.1999 60.454 19.1999 58.0999V22.8999C19.1999 20.5458 19.7891 18.5965 21.1428 17.2428C22.4965 15.8891 24.4458 15.2999 26.7999 15.2999H38.8999C41.254 15.2999 43.2033 15.8891 44.557 17.2428ZM113.591 62.5999V77.9999H131.391V62.5999H139.091V49.1999H131.391V32.6999H113.591V49.1999H92.1681L118.568 2.9999H98.8716L72.8913 48.4655V62.5999H113.591ZM71.8913 48.1999L98.2913 1.9999H120.291L93.8913 48.1999H112.591V31.6999H132.391V48.1999H140.091V63.5999H132.391V78.9999H112.591V63.5999H71.8913V48.1999ZM38.8999 16.2999C43.2999 16.2999 45.4999 18.4999 45.4999 22.8999V58.0999C45.4999 62.4999 43.2999 64.6999 38.8999 64.6999H26.7999C22.3999 64.6999 20.1999 62.4999 20.1999 58.0999V22.8999C20.1999 18.4999 22.3999 16.2999 26.7999 16.2999H38.8999Z" fill="black"/>
</svg>
