<svg width="588" height="81" viewBox="0 0 588 81" fill="none" xmlns="http://www.w3.org/2000/svg">
<path opacity="0.85" fill-rule="evenodd" clip-rule="evenodd" d="M60.3722 7.01101C57.0027 3.67768 51.7287 2.01101 44.5502 2.01101H0.600098V79.7888H47.8465C55.025 79.7888 60.299 78.0851 63.6685 74.6777C67.038 71.2703 68.7228 65.9369 68.7228 58.6777C68.7228 55.6406 68.3565 52.974 67.624 50.6777C65.8362 45.3162 62.6993 41.6337 58.2134 39.6303C57.3693 39.2533 56.4774 38.9358 55.5377 38.6777C56.4183 38.3262 57.2548 37.8932 58.0474 37.3786C59.7602 36.2665 61.2677 34.7736 62.5697 32.8999C64.4743 30.0851 65.4265 26.4555 65.4265 22.011C65.4265 15.2703 63.7418 10.2703 60.3722 7.01101ZM65.7268 51.3107C63.794 45.5248 60.2411 42.0629 55.0141 40.6273L49.2079 39.0325L54.8042 36.7986C57.1828 35.8491 59.2246 34.1966 60.928 31.7487C62.5409 29.3595 63.4288 26.1646 63.4288 22.011C63.4288 15.5815 61.8231 11.21 58.9914 8.4709L58.9833 8.46306L58.9752 8.45512C56.1343 5.64469 51.4738 4.03121 44.5502 4.03121H2.59783V77.7686H47.8465C54.7599 77.7686 59.4139 76.1231 62.2559 73.2492C65.0979 70.3752 66.725 65.6688 66.725 58.6777C66.725 55.8053 66.3787 53.3599 65.7268 51.3107ZM18.3799 46.6575H42.3527C44.8581 46.6575 47.1042 47.2923 48.7097 48.9158C50.3152 50.5394 50.9429 52.8107 50.9429 55.3443V57.5666C50.9429 60.1002 50.3152 62.3715 48.7097 63.9951C47.1042 65.6187 44.8581 66.2534 42.3527 66.2534H18.3799V46.6575ZM18.3799 15.5464H39.0564C41.5619 15.5464 43.8079 16.1811 45.4134 17.8047C47.019 19.4283 47.6467 21.6996 47.6467 24.2332V26.4555C47.6467 28.9891 47.019 31.2604 45.4134 32.884C43.8079 34.5076 41.5619 35.1423 39.0564 35.1423H18.3799V15.5464ZM42.3527 64.2332C46.7477 64.2332 48.9452 62.011 48.9452 57.5666V55.3443C48.9452 50.8999 46.7477 48.6777 42.3527 48.6777H20.3776V64.2332H42.3527ZM39.0564 33.1221C43.4514 33.1221 45.649 30.8999 45.649 26.4555V24.2332C45.649 19.7888 43.4514 17.5666 39.0564 17.5666H20.3776V33.1221H39.0564ZM96.3871 66.2534V4.03121H80.605V77.7686H136.492V66.2534H96.3871ZM78.6072 79.7888V2.01101H98.3848V64.2332H138.489V79.7888H78.6072ZM138.515 79.7888H159.941L164.885 65.8999H192.354L197.298 79.7888H218.724L189.607 2.01101H167.632L138.515 79.7888ZM169.012 4.03121L141.407 77.7686H158.537L163.481 63.8797H193.758L198.702 77.7686H215.832L188.227 4.03121H169.012ZM167.039 53.4757L178.619 19.0756L190.2 53.4757H167.039ZM187.409 51.4555L178.619 25.3443L169.829 51.4555H187.409ZM241.076 63.8999C240.124 62.8629 239.647 61.4925 239.647 59.7888V24.2332C239.647 19.7888 241.845 17.5666 246.24 17.5666H281.4V2.01101H241.845C234.154 2.01101 228.55 3.78879 225.034 7.34435C221.591 10.8258 219.87 16.4555 219.87 24.2332V59.7888C219.87 67.0481 221.555 72.3814 224.924 75.7888C228.294 79.1962 233.568 80.8999 240.746 80.8999C251.514 80.8999 265.065 80.1592 281.4 78.6777V63.6777C280.718 63.7201 280.052 63.7618 279.402 63.8027C275.511 64.0474 272.185 64.265 269.424 64.4555C266.274 64.6777 263.673 64.8258 261.623 64.8999L255.689 65.1221C253.711 65.1962 251.807 65.2703 249.976 65.3443H244.921C243.383 65.3443 242.101 64.8629 241.076 63.8999ZM269.56 66.471C266.399 66.6939 263.775 66.8436 261.694 66.9188L255.763 67.1409C253.787 67.215 251.885 67.2889 250.056 67.3629L250.016 67.3645H244.921C242.933 67.3645 241.149 66.7259 239.716 65.3803L239.662 65.3294L239.612 65.2746C238.249 63.7904 237.65 61.8925 237.65 59.7888V24.2332C237.65 21.6996 238.277 19.4283 239.883 17.8047C241.489 16.1811 243.735 15.5464 246.24 15.5464H279.402V4.03121H241.845C234.401 4.03121 229.427 5.75921 226.447 8.77285C223.546 11.7058 221.868 16.6907 221.868 24.2332V59.7888C221.868 66.78 223.495 71.4863 226.337 74.3603C229.179 77.2342 233.833 78.8797 240.746 78.8797C251.032 78.8797 263.913 78.1982 279.402 76.8285V65.8268C275.567 66.0682 272.287 66.2829 269.56 66.471ZM309.98 32.5666V2.01101H290.203V79.7888H309.98V48.1221H319.869L336.9 79.7888H357.776L336.351 40.3443L357.886 2.01101H337.01L319.869 32.5666H309.98ZM338.173 4.03121L321.033 34.5868H307.983V4.03121H292.201V77.7686H307.983V46.1019H321.057L338.088 77.7686H354.4L334.062 40.3277L354.454 4.03121H338.173ZM424.227 7.01101C420.857 3.67768 415.583 2.01101 408.405 2.01101H364.455V79.7888H411.701C418.879 79.7888 424.153 78.0851 427.523 74.6777C430.892 71.2703 432.577 65.9369 432.577 58.6777C432.577 55.6406 432.211 52.974 431.478 50.6777C429.691 45.3162 426.554 41.6337 422.068 39.6303C421.224 39.2533 420.332 38.9358 419.392 38.6777C420.273 38.3262 421.109 37.8932 421.902 37.3786C423.615 36.2665 425.122 34.7736 426.424 32.8999C428.329 30.0851 429.281 26.4555 429.281 22.011C429.281 15.2703 427.596 10.2703 424.227 7.01101ZM424.782 31.7498C426.395 29.3605 427.283 26.1652 427.283 22.011C427.283 15.5815 425.678 11.21 422.846 8.4709L422.838 8.46306L422.83 8.45512C419.989 5.64469 415.328 4.03121 408.405 4.03121H366.452V77.7686H411.701C418.614 77.7686 423.268 76.1231 426.11 73.2492C428.952 70.3752 430.579 65.6688 430.579 58.6777C430.579 55.8051 430.233 53.3595 429.581 51.3102C427.648 45.5246 424.095 42.0629 418.869 40.6273L413.062 39.0325L418.659 36.7986C421.037 35.8493 423.078 34.197 424.782 31.7498ZM382.234 46.6575H406.207C408.713 46.6575 410.959 47.2923 412.564 48.9158C414.17 50.5394 414.797 52.8107 414.797 55.3443V57.5666C414.797 60.1002 414.17 62.3715 412.564 63.9951C410.959 65.6187 408.713 66.2534 406.207 66.2534H382.234V46.6575ZM382.234 15.5464H402.911C405.416 15.5464 407.662 16.1811 409.268 17.8047C410.873 19.4283 411.501 21.6996 411.501 24.2332V26.4555C411.501 28.9891 410.873 31.2604 409.268 32.884C407.662 34.5076 405.416 35.1423 402.911 35.1423H382.234V15.5464ZM406.207 64.2332C410.602 64.2332 412.8 62.011 412.8 57.5666V55.3443C412.8 50.8999 410.602 48.6777 406.207 48.6777H384.232V64.2332H406.207ZM402.911 33.1221C407.306 33.1221 409.503 30.8999 409.503 26.4555V24.2332C409.503 19.7888 407.306 17.5666 402.911 17.5666H384.232V33.1221H402.911ZM506.409 6.23323C502.966 2.67768 497.399 0.899902 489.708 0.899902H462.239C454.548 0.899902 448.944 2.67768 445.428 6.23323C441.986 9.71472 440.264 15.3443 440.264 23.1221V58.6777C440.264 66.4555 441.986 72.1221 445.428 75.6777C448.944 79.1592 454.548 80.8999 462.239 80.8999H489.708C497.399 80.8999 502.966 79.1592 506.409 75.6777C509.925 72.1221 511.683 66.4555 511.683 58.6777V23.1221C511.683 15.3443 509.925 9.71472 506.409 6.23323ZM446.841 74.2493C449.822 77.19 454.798 78.8797 462.239 78.8797H489.708C497.167 78.8797 502.096 77.1822 504.996 74.2492C507.977 71.2355 509.685 66.2056 509.685 58.6777V23.1221C509.685 15.5894 507.975 10.6108 505.011 7.67669L504.996 7.66181L504.982 7.64662C502.08 4.65009 497.157 2.9201 489.708 2.9201H462.239C454.795 2.9201 449.821 4.64809 446.841 7.66173C443.941 10.5947 442.262 15.5796 442.262 23.1221V58.6777C442.262 66.2027 443.933 71.2348 446.841 74.2493ZM491.67 16.6936C493.276 18.3172 493.903 20.5885 493.903 23.1221V58.6777C493.903 61.2113 493.276 63.4826 491.67 65.1062C490.065 66.7298 487.819 67.3645 485.313 67.3645H466.634C464.129 67.3645 461.883 66.7298 460.277 65.1062C458.672 63.4826 458.044 61.2113 458.044 58.6777V23.1221C458.044 20.5885 458.672 18.3172 460.277 16.6936C461.883 15.07 464.129 14.4353 466.634 14.4353H485.313C487.819 14.4353 490.065 15.07 491.67 16.6936ZM562.329 40.8999L587.051 2.01101H565.076L550.242 26.4555L535.299 2.01101H513.434L538.156 40.8999L512.885 79.7888H534.86L550.242 55.3443L565.625 79.7888H587.6L562.329 40.8999ZM583.897 77.7686L559.946 40.912L583.392 4.03121H566.194L550.249 30.3077L534.186 4.03121H517.093L540.539 40.912L516.588 77.7686H533.763L550.242 51.5815L566.722 77.7686H583.897ZM485.313 16.4555C489.708 16.4555 491.906 18.6777 491.906 23.1221V58.6777C491.906 63.1221 489.708 65.3443 485.313 65.3443H466.634C462.239 65.3443 460.042 63.1221 460.042 58.6777V23.1221C460.042 18.6777 462.239 16.4555 466.634 16.4555H485.313Z" fill="black"/>
</svg>
