<svg width="591" height="83" viewBox="0 0 591 83" fill="none" xmlns="http://www.w3.org/2000/svg">
<path fill-rule="evenodd" clip-rule="evenodd" d="M0.416504 1.9999H45.4165C52.7281 1.9999 58.3138 3.67501 61.9518 7.23117C65.5915 10.7153 67.3165 15.9751 67.3165 22.7999C67.3165 27.3409 66.3322 31.1478 64.2818 34.1446L64.2748 34.1549C62.7933 36.2631 61.0447 37.9269 59.0286 39.128C64.0455 41.1814 67.5299 45.1246 69.4641 50.8604L69.4683 50.8729C70.2407 53.2672 70.6165 56.0147 70.6165 59.0999C70.6165 66.4193 68.901 72.0096 65.2636 75.647C61.6262 79.2844 56.0359 80.9999 48.7165 80.9999H0.416504V1.9999ZM57.8674 39.7542C57.3971 39.5863 56.9135 39.4349 56.4165 39.2999C56.8886 39.1136 57.348 38.9041 57.7948 38.6714C59.9856 37.5308 61.8728 35.8336 63.4565 33.5799C65.3632 30.7932 66.3165 27.1999 66.3165 22.7999C66.3165 16.1266 64.6298 11.1766 61.2565 7.9499C57.8832 4.6499 52.6032 2.9999 45.4165 2.9999H1.4165V79.9999H48.7165C55.9032 79.9999 61.1832 78.3132 64.5565 74.9399C67.9298 71.5666 69.6165 66.2866 69.6165 59.0999C69.6165 56.0932 69.2498 53.4532 68.5165 51.1799C66.5678 45.4009 63.0181 41.5923 57.8674 39.7542ZM47.4594 51.557C46.6131 50.7107 45.2624 50.1999 43.2165 50.1999H22.2165V63.5999H43.2165C45.2624 63.5999 46.6131 63.0891 47.4594 62.2428C48.3057 61.3965 48.8165 60.0458 48.8165 57.9999V55.7999C48.8165 53.754 48.3057 52.4033 47.4594 51.557ZM43.2165 64.5999C47.6165 64.5999 49.8165 62.3999 49.8165 57.9999V55.7999C49.8165 51.3999 47.6165 49.1999 43.2165 49.1999H21.2165V64.5999H43.2165ZM44.1594 20.757C43.3131 19.9107 41.9624 19.3999 39.9165 19.3999H22.2165V32.7999H39.9165C41.9624 32.7999 43.3131 32.2891 44.1594 31.4428C45.0057 30.5965 45.5165 29.2458 45.5165 27.1999V24.9999C45.5165 22.9541 45.0057 21.6033 44.1594 20.757ZM39.9165 33.7999C44.3165 33.7999 46.5165 31.5999 46.5165 27.1999V24.9999C46.5165 20.5999 44.3165 18.3999 39.9165 18.3999H21.2165V33.7999H39.9165ZM79.5122 79.9999V2.9999H99.3122V64.5999H139.462V79.9999H79.5122ZM139.488 79.9999H160.938L165.888 66.2499H193.388L198.338 79.9999H219.788L190.638 2.9999H168.638L139.488 79.9999ZM192.685 67.2499L197.635 80.9999H221.236L191.329 1.9999H167.947L140.462 74.602V63.5999H100.312V1.9999H78.5122V80.9999H161.641L166.591 67.2499H192.685ZM188.438 51.9499L179.638 26.0999L170.838 51.9499H188.438ZM172.235 50.9499H187.041L179.638 29.203L172.235 50.9499ZM283.535 79.8142L282.625 79.8959C266.255 81.364 252.656 82.0999 241.835 82.0999C234.516 82.0999 228.926 80.3844 225.288 76.747C221.651 73.1096 219.935 67.5193 219.935 60.1999V24.9999C219.935 17.1834 221.68 11.291 225.398 7.5728C229.186 3.78455 235.112 1.9999 242.935 1.9999H283.535V19.3999H247.335C245.289 19.3999 243.939 19.9107 243.092 20.757C242.246 21.6033 241.735 22.9541 241.735 24.9999V60.1999C241.735 61.6719 242.141 62.7596 242.873 63.5623C243.691 64.3098 244.715 64.6999 246.015 64.6999H251.055C252.884 64.6268 254.785 64.5537 256.758 64.4806L262.698 64.2606L262.7 64.2605C264.737 64.1878 267.328 64.0419 270.476 63.8223L270.477 63.8222C273.707 63.602 277.706 63.3452 282.474 63.0518L283.535 62.9865V79.8142ZM251.075 65.6999H246.015C244.475 65.6999 243.192 65.2232 242.165 64.2699C241.212 63.2432 240.735 61.8866 240.735 60.1999V24.9999C240.735 20.5999 242.935 18.3999 247.335 18.3999H282.535V2.9999H242.935C235.235 2.9999 229.625 4.7599 226.105 8.27991C222.659 11.7266 220.935 17.2999 220.935 24.9999V60.1999C220.935 67.3866 222.622 72.6666 225.995 76.0399C229.369 79.4132 234.649 81.0999 241.835 81.0999C252.615 81.0999 266.182 80.3666 282.535 78.8999V64.0499C282.198 64.0707 281.865 64.0912 281.535 64.1116C277.207 64.3794 273.544 64.6155 270.545 64.8199C267.392 65.0399 264.789 65.1866 262.735 65.2599L256.795 65.4799C254.815 65.5532 252.909 65.6266 251.075 65.6999ZM312.148 80.9999H290.348V1.9999H312.148V32.2499H320.466L337.626 1.9999H360.826L338.694 40.9581L360.688 80.9999H337.504L320.454 49.6499H312.148V80.9999ZM321.048 48.6499L338.098 79.9999H358.998L337.548 40.9499L359.108 2.9999H338.208L321.048 33.2499H311.148V2.9999H291.348V79.9999H311.148V48.6499H321.048ZM364.684 1.9999H409.684C416.996 1.9999 422.582 3.67523 426.22 7.23187C429.859 10.7161 431.584 15.9755 431.584 22.7999C431.584 27.3409 430.6 31.1478 428.549 34.1446L428.542 34.1549C427.061 36.263 425.312 37.9269 423.296 39.128C428.313 41.1814 431.798 45.1246 433.732 50.8604L433.736 50.8729C434.508 53.2672 434.884 56.0147 434.884 59.0999C434.884 66.4193 433.169 72.0096 429.531 75.647C425.894 79.2844 420.303 80.9999 412.984 80.9999H364.684V1.9999ZM422.135 39.7541C421.665 39.5863 421.181 39.4349 420.684 39.2999C421.156 39.1136 421.616 38.9041 422.062 38.6714C424.253 37.5308 426.14 35.8336 427.724 33.5799C429.631 30.7932 430.584 27.1999 430.584 22.7999C430.584 16.1266 428.897 11.1766 425.524 7.9499C422.151 4.6499 416.871 2.9999 409.684 2.9999H365.684V79.9999H412.984C420.171 79.9999 425.451 78.3132 428.824 74.9399C432.197 71.5666 433.884 66.2866 433.884 59.0999C433.884 56.0932 433.517 53.4532 432.784 51.1799C430.835 45.4009 427.286 41.5923 422.135 39.7541ZM411.727 51.557C410.881 50.7107 409.53 50.1999 407.484 50.1999H386.484V63.5999H407.484C409.53 63.5999 410.881 63.0891 411.727 62.2428C412.573 61.3965 413.084 60.0458 413.084 57.9999V55.7999C413.084 53.754 412.573 52.4033 411.727 51.557ZM407.484 64.5999C411.884 64.5999 414.084 62.3999 414.084 57.9999V55.7999C414.084 51.3999 411.884 49.1999 407.484 49.1999H385.484V64.5999H407.484ZM408.427 20.757C407.581 19.9107 406.23 19.3999 404.184 19.3999H386.484V32.7999H404.184C406.23 32.7999 407.581 32.2891 408.427 31.4428C409.273 30.5965 409.784 29.2458 409.784 27.1999V24.9999C409.784 22.9541 409.273 21.6033 408.427 20.757ZM404.184 33.7999C408.584 33.7999 410.784 31.5999 410.784 27.1999V24.9999C410.784 20.5999 408.584 18.3999 404.184 18.3999H385.484V33.7999H404.184ZM446.043 76.6371L446.035 76.6295C442.326 72.8408 440.58 66.9188 440.58 59.0999V23.8999C440.58 16.0834 442.324 10.191 446.043 6.47279C449.831 2.68455 455.756 0.899902 463.58 0.899902H491.08C498.896 0.899902 504.789 2.68128 508.507 6.47299C512.299 10.191 514.08 16.0838 514.08 23.8999V59.0999C514.08 66.9236 512.295 72.8488 508.507 76.637C504.789 80.3552 498.896 82.0999 491.08 82.0999H463.58C455.761 82.0999 449.839 80.3542 446.05 76.6444L446.043 76.6371ZM507.8 7.1799C504.353 3.6599 498.78 1.8999 491.08 1.8999H463.58C455.88 1.8999 450.27 3.6599 446.75 7.1799C443.303 10.6266 441.58 16.1999 441.58 23.8999V59.0999C441.58 66.7999 443.303 72.4099 446.75 75.9299C450.27 79.3766 455.88 81.0999 463.58 81.0999H491.08C498.78 81.0999 504.353 79.3766 507.8 75.9299C511.32 72.4099 513.08 66.7999 513.08 59.0999V23.8999C513.08 16.1999 511.32 10.6266 507.8 7.1799ZM490.923 19.657C490.076 18.8107 488.726 18.2999 486.68 18.2999H467.98C465.934 18.2999 464.583 18.8107 463.737 19.657C462.891 20.5033 462.38 21.854 462.38 23.8999V59.0999C462.38 61.1458 462.891 62.4965 463.737 63.3428C464.583 64.1891 465.934 64.6999 467.98 64.6999H486.68C488.726 64.6999 490.076 64.1891 490.923 63.3428C491.769 62.4965 492.28 61.1458 492.28 59.0999V23.8999C492.28 21.854 491.769 20.5033 490.923 19.657ZM565.973 1.9999H590.365L564.976 41.4939L590.937 80.9999H566.534L551.683 57.6625L536.832 80.9999H512.429L538.39 41.4939L513.001 1.9999H537.28L551.68 25.2931L565.973 1.9999ZM551.683 27.1999L536.723 2.9999H514.833L539.583 41.4999L514.283 79.9999H536.283L551.683 55.7999L567.083 79.9999H589.083L563.783 41.4999L588.533 2.9999H566.533L551.683 27.1999ZM486.68 17.2999C491.08 17.2999 493.28 19.4999 493.28 23.8999V59.0999C493.28 63.4999 491.08 65.6999 486.68 65.6999H467.98C463.58 65.6999 461.38 63.4999 461.38 59.0999V23.8999C461.38 19.4999 463.58 17.2999 467.98 17.2999H486.68Z" fill="black"/>
</svg>
