<svg width="233" height="64" viewBox="0 0 233 64" fill="none" xmlns="http://www.w3.org/2000/svg">
<path opacity="0.75" d="M51 62.1L51.0893 63.096L52 63.0143V62.1H51ZM4.74 59.76L5.44711 59.0529L5.44711 59.0529L4.74 59.76ZM4.83 4.32L5.53711 5.02711L5.53711 5.02711L4.83 4.32ZM51 -4.29153e-06H52V-1H51V-4.29153e-06ZM51 12.6L51 13.6H52L52 12.6H51ZM17.97 50.13L17.2372 50.8105L17.2624 50.8376L17.2895 50.8628L17.97 50.13ZM25.26 51.3V52.3H25.28L25.3 52.2992L25.26 51.3ZM29.94 51.12L29.977 52.1193L29.977 52.1193L29.94 51.12ZM34.8 50.94L34.7643 49.9406L34.763 49.9407L34.8 50.94ZM41.19 50.58L41.122 49.5823L41.1204 49.5824L41.19 50.58ZM51 49.95H52V48.8866L50.9386 48.9519L51 49.95ZM50.9107 61.104C37.5468 62.3026 26.4791 62.9 17.7 62.9V64.9C26.5609 64.9 37.6932 64.2974 51.0893 63.096L50.9107 61.104ZM17.7 62.9C11.9527 62.9 7.94304 61.5488 5.44711 59.0529L4.03289 60.4671C7.05696 63.4912 11.6873 64.9 17.7 64.9V62.9ZM5.44711 59.0529C2.95117 56.557 1.6 52.5473 1.6 46.8H-0.4C-0.4 52.8127 1.00883 57.443 4.03289 60.4671L5.44711 59.0529ZM1.6 46.8L1.6 18H-0.4L-0.4 46.8H1.6ZM1.6 18C1.6 11.8165 2.98862 7.57559 5.53711 5.02711L4.12289 3.61289C1.03138 6.7044 -0.4 11.5835 -0.4 18H1.6ZM5.53711 5.02711C8.14886 2.41535 12.4237 0.999996 18.6 0.999996V-1C12.1763 -1 7.27114 0.464642 4.12289 3.61289L5.53711 5.02711ZM18.6 0.999996L51 0.999996V-1L18.6 -1V0.999996ZM50 -4.29153e-06V12.6H52V-4.29153e-06H50ZM51 11.6L22.2 11.6V13.6L51 13.6L51 11.6ZM22.2 11.6C20.2459 11.6 18.5966 12.0892 17.4429 13.2429C16.2892 14.3966 15.8 16.0459 15.8 18H17.8C17.8 16.3541 18.2108 15.3034 18.8571 14.6571C19.5034 14.0108 20.5541 13.6 22.2 13.6V11.6ZM15.8 18L15.8 46.8H17.8L17.8 18H15.8ZM15.8 46.8C15.8 48.378 16.2517 49.7491 17.2372 50.8105L18.7028 49.4495C18.1283 48.8309 17.8 47.982 17.8 46.8H15.8ZM17.2895 50.8628C18.3335 51.8322 19.6348 52.3 21.12 52.3V50.3C20.0852 50.3 19.2865 49.9878 18.6505 49.3972L17.2895 50.8628ZM21.12 52.3C21.1225 52.3 21.1249 52.3 21.1274 52.3C21.1298 52.3 21.1323 52.3 21.1348 52.3C21.1372 52.3 21.1397 52.3 21.1422 52.3C21.1446 52.3 21.1471 52.3 21.1496 52.3C21.152 52.3 21.1545 52.3 21.1569 52.3C21.1594 52.3 21.1619 52.3 21.1643 52.3C21.1668 52.3 21.1693 52.3 21.1717 52.3C21.1742 52.3 21.1767 52.3 21.1792 52.3C21.1816 52.3 21.1841 52.3 21.1866 52.3C21.189 52.3 21.1915 52.3 21.194 52.3C21.1964 52.3 21.1989 52.3 21.2014 52.3C21.2038 52.3 21.2063 52.3 21.2088 52.3C21.2113 52.3 21.2137 52.3 21.2162 52.3C21.2187 52.3 21.2212 52.3 21.2236 52.3C21.2261 52.3 21.2286 52.3 21.2311 52.3C21.2335 52.3 21.236 52.3 21.2385 52.3C21.241 52.3 21.2434 52.3 21.2459 52.3C21.2484 52.3 21.2509 52.3 21.2533 52.3C21.2558 52.3 21.2583 52.3 21.2608 52.3C21.2632 52.3 21.2657 52.3 21.2682 52.3C21.2707 52.3 21.2732 52.3 21.2756 52.3C21.2781 52.3 21.2806 52.3 21.2831 52.3C21.2856 52.3 21.288 52.3 21.2905 52.3C21.293 52.3 21.2955 52.3 21.298 52.3C21.3005 52.3 21.3029 52.3 21.3054 52.3C21.3079 52.3 21.3104 52.3 21.3129 52.3C21.3154 52.3 21.3179 52.3 21.3203 52.3C21.3228 52.3 21.3253 52.3 21.3278 52.3C21.3303 52.3 21.3328 52.3 21.3353 52.3C21.3377 52.3 21.3402 52.3 21.3427 52.3C21.3452 52.3 21.3477 52.3 21.3502 52.3C21.3527 52.3 21.3552 52.3 21.3577 52.3C21.3601 52.3 21.3626 52.3 21.3651 52.3C21.3676 52.3 21.3701 52.3 21.3726 52.3C21.3751 52.3 21.3776 52.3 21.3801 52.3C21.3826 52.3 21.3851 52.3 21.3876 52.3C21.3901 52.3 21.3925 52.3 21.395 52.3C21.3975 52.3 21.4 52.3 21.4025 52.3C21.405 52.3 21.4075 52.3 21.41 52.3C21.4125 52.3 21.415 52.3 21.4175 52.3C21.42 52.3 21.4225 52.3 21.425 52.3C21.4275 52.3 21.43 52.3 21.4325 52.3C21.435 52.3 21.4375 52.3 21.44 52.3C21.4425 52.3 21.445 52.3 21.4475 52.3C21.45 52.3 21.4525 52.3 21.455 52.3C21.4575 52.3 21.46 52.3 21.4625 52.3C21.465 52.3 21.4675 52.3 21.47 52.3C21.4725 52.3 21.475 52.3 21.4775 52.3C21.48 52.3 21.4825 52.3 21.4851 52.3C21.4876 52.3 21.4901 52.3 21.4926 52.3C21.4951 52.3 21.4976 52.3 21.5001 52.3C21.5026 52.3 21.5051 52.3 21.5076 52.3C21.5101 52.3 21.5126 52.3 21.5151 52.3C21.5177 52.3 21.5202 52.3 21.5227 52.3C21.5252 52.3 21.5277 52.3 21.5302 52.3C21.5327 52.3 21.5352 52.3 21.5377 52.3C21.5403 52.3 21.5428 52.3 21.5453 52.3C21.5478 52.3 21.5503 52.3 21.5528 52.3C21.5553 52.3 21.5579 52.3 21.5604 52.3C21.5629 52.3 21.5654 52.3 21.5679 52.3C21.5704 52.3 21.5729 52.3 21.5755 52.3C21.578 52.3 21.5805 52.3 21.583 52.3C21.5855 52.3 21.588 52.3 21.5906 52.3C21.5931 52.3 21.5956 52.3 21.5981 52.3C21.6006 52.3 21.6032 52.3 21.6057 52.3C21.6082 52.3 21.6107 52.3 21.6132 52.3C21.6158 52.3 21.6183 52.3 21.6208 52.3C21.6233 52.3 21.6259 52.3 21.6284 52.3C21.6309 52.3 21.6334 52.3 21.636 52.3C21.6385 52.3 21.641 52.3 21.6435 52.3C21.6461 52.3 21.6486 52.3 21.6511 52.3C21.6536 52.3 21.6562 52.3 21.6587 52.3C21.6612 52.3 21.6637 52.3 21.6663 52.3C21.6688 52.3 21.6713 52.3 21.6738 52.3C21.6764 52.3 21.6789 52.3 21.6814 52.3C21.684 52.3 21.6865 52.3 21.689 52.3C21.6916 52.3 21.6941 52.3 21.6966 52.3C21.6992 52.3 21.7017 52.3 21.7042 52.3C21.7067 52.3 21.7093 52.3 21.7118 52.3C21.7143 52.3 21.7169 52.3 21.7194 52.3C21.7219 52.3 21.7245 52.3 21.727 52.3C21.7296 52.3 21.7321 52.3 21.7346 52.3C21.7372 52.3 21.7397 52.3 21.7422 52.3C21.7448 52.3 21.7473 52.3 21.7498 52.3C21.7524 52.3 21.7549 52.3 21.7575 52.3C21.76 52.3 21.7625 52.3 21.7651 52.3C21.7676 52.3 21.7702 52.3 21.7727 52.3C21.7752 52.3 21.7778 52.3 21.7803 52.3C21.7829 52.3 21.7854 52.3 21.7879 52.3C21.7905 52.3 21.793 52.3 21.7956 52.3C21.7981 52.3 21.8007 52.3 21.8032 52.3C21.8058 52.3 21.8083 52.3 21.8108 52.3C21.8134 52.3 21.8159 52.3 21.8185 52.3C21.821 52.3 21.8236 52.3 21.8261 52.3C21.8287 52.3 21.8312 52.3 21.8338 52.3C21.8363 52.3 21.8389 52.3 21.8414 52.3C21.844 52.3 21.8465 52.3 21.8491 52.3C21.8516 52.3 21.8542 52.3 21.8567 52.3C21.8593 52.3 21.8618 52.3 21.8644 52.3C21.8669 52.3 21.8695 52.3 21.872 52.3C21.8746 52.3 21.8771 52.3 21.8797 52.3C21.8822 52.3 21.8848 52.3 21.8873 52.3C21.8899 52.3 21.8924 52.3 21.895 52.3C21.8976 52.3 21.9001 52.3 21.9027 52.3C21.9052 52.3 21.9078 52.3 21.9103 52.3C21.9129 52.3 21.9155 52.3 21.918 52.3C21.9206 52.3 21.9231 52.3 21.9257 52.3C21.9282 52.3 21.9308 52.3 21.9334 52.3C21.9359 52.3 21.9385 52.3 21.941 52.3C21.9436 52.3 21.9462 52.3 21.9487 52.3C21.9513 52.3 21.9539 52.3 21.9564 52.3C21.959 52.3 21.9615 52.3 21.9641 52.3C21.9667 52.3 21.9692 52.3 21.9718 52.3C21.9744 52.3 21.9769 52.3 21.9795 52.3C21.9821 52.3 21.9846 52.3 21.9872 52.3C21.9898 52.3 21.9923 52.3 21.9949 52.3C21.9975 52.3 22 52.3 22.0026 52.3C22.0052 52.3 22.0077 52.3 22.0103 52.3C22.0129 52.3 22.0154 52.3 22.018 52.3C22.0206 52.3 22.0231 52.3 22.0257 52.3C22.0283 52.3 22.0309 52.3 22.0334 52.3C22.036 52.3 22.0386 52.3 22.0411 52.3C22.0437 52.3 22.0463 52.3 22.0489 52.3C22.0514 52.3 22.054 52.3 22.0566 52.3C22.0592 52.3 22.0617 52.3 22.0643 52.3C22.0669 52.3 22.0695 52.3 22.072 52.3C22.0746 52.3 22.0772 52.3 22.0798 52.3C22.0823 52.3 22.0849 52.3 22.0875 52.3C22.0901 52.3 22.0927 52.3 22.0952 52.3C22.0978 52.3 22.1004 52.3 22.103 52.3C22.1056 52.3 22.1081 52.3 22.1107 52.3C22.1133 52.3 22.1159 52.3 22.1185 52.3C22.121 52.3 22.1236 52.3 22.1262 52.3C22.1288 52.3 22.1314 52.3 22.134 52.3C22.1365 52.3 22.1391 52.3 22.1417 52.3C22.1443 52.3 22.1469 52.3 22.1495 52.3C22.152 52.3 22.1546 52.3 22.1572 52.3C22.1598 52.3 22.1624 52.3 22.165 52.3C22.1676 52.3 22.1702 52.3 22.1727 52.3C22.1753 52.3 22.1779 52.3 22.1805 52.3C22.1831 52.3 22.1857 52.3 22.1883 52.3C22.1909 52.3 22.1935 52.3 22.1961 52.3C22.1986 52.3 22.2012 52.3 22.2038 52.3C22.2064 52.3 22.209 52.3 22.2116 52.3C22.2142 52.3 22.2168 52.3 22.2194 52.3C22.222 52.3 22.2246 52.3 22.2272 52.3C22.2298 52.3 22.2324 52.3 22.2349 52.3C22.2375 52.3 22.2401 52.3 22.2427 52.3C22.2453 52.3 22.2479 52.3 22.2505 52.3C22.2531 52.3 22.2557 52.3 22.2583 52.3C22.2609 52.3 22.2635 52.3 22.2661 52.3C22.2687 52.3 22.2713 52.3 22.2739 52.3C22.2765 52.3 22.2791 52.3 22.2817 52.3C22.2843 52.3 22.2869 52.3 22.2895 52.3C22.2921 52.3 22.2947 52.3 22.2973 52.3C22.2999 52.3 22.3025 52.3 22.3051 52.3C22.3077 52.3 22.3103 52.3 22.313 52.3C22.3156 52.3 22.3182 52.3 22.3208 52.3C22.3234 52.3 22.326 52.3 22.3286 52.3C22.3312 52.3 22.3338 52.3 22.3364 52.3C22.339 52.3 22.3416 52.3 22.3442 52.3C22.3468 52.3 22.3494 52.3 22.3521 52.3C22.3547 52.3 22.3573 52.3 22.3599 52.3C22.3625 52.3 22.3651 52.3 22.3677 52.3C22.3703 52.3 22.3729 52.3 22.3756 52.3C22.3782 52.3 22.3808 52.3 22.3834 52.3C22.386 52.3 22.3886 52.3 22.3912 52.3C22.3938 52.3 22.3965 52.3 22.3991 52.3C22.4017 52.3 22.4043 52.3 22.4069 52.3C22.4095 52.3 22.4122 52.3 22.4148 52.3C22.4174 52.3 22.42 52.3 22.4226 52.3C22.4252 52.3 22.4279 52.3 22.4305 52.3C22.4331 52.3 22.4357 52.3 22.4383 52.3C22.4409 52.3 22.4436 52.3 22.4462 52.3C22.4488 52.3 22.4514 52.3 22.454 52.3C22.4567 52.3 22.4593 52.3 22.4619 52.3C22.4645 52.3 22.4672 52.3 22.4698 52.3C22.4724 52.3 22.475 52.3 22.4777 52.3C22.4803 52.3 22.4829 52.3 22.4855 52.3C22.4882 52.3 22.4908 52.3 22.4934 52.3C22.496 52.3 22.4987 52.3 22.5013 52.3C22.5039 52.3 22.5065 52.3 22.5092 52.3C22.5118 52.3 22.5144 52.3 22.517 52.3C22.5197 52.3 22.5223 52.3 22.5249 52.3C22.5276 52.3 22.5302 52.3 22.5328 52.3C22.5355 52.3 22.5381 52.3 22.5407 52.3C22.5433 52.3 22.546 52.3 22.5486 52.3C22.5512 52.3 22.5539 52.3 22.5565 52.3C22.5591 52.3 22.5618 52.3 22.5644 52.3C22.567 52.3 22.5697 52.3 22.5723 52.3C22.5749 52.3 22.5776 52.3 22.5802 52.3C22.5829 52.3 22.5855 52.3 22.5881 52.3C22.5908 52.3 22.5934 52.3 22.596 52.3C22.5987 52.3 22.6013 52.3 22.604 52.3C22.6066 52.3 22.6092 52.3 22.6119 52.3C22.6145 52.3 22.6171 52.3 22.6198 52.3C22.6224 52.3 22.6251 52.3 22.6277 52.3C22.6304 52.3 22.633 52.3 22.6356 52.3C22.6383 52.3 22.6409 52.3 22.6436 52.3C22.6462 52.3 22.6489 52.3 22.6515 52.3C22.6541 52.3 22.6568 52.3 22.6594 52.3C22.6621 52.3 22.6647 52.3 22.6674 52.3C22.67 52.3 22.6727 52.3 22.6753 52.3C22.678 52.3 22.6806 52.3 22.6832 52.3C22.6859 52.3 22.6885 52.3 22.6912 52.3C22.6938 52.3 22.6965 52.3 22.6991 52.3C22.7018 52.3 22.7044 52.3 22.7071 52.3C22.7097 52.3 22.7124 52.3 22.715 52.3C22.7177 52.3 22.7203 52.3 22.723 52.3C22.7256 52.3 22.7283 52.3 22.731 52.3C22.7336 52.3 22.7363 52.3 22.7389 52.3C22.7416 52.3 22.7442 52.3 22.7469 52.3C22.7495 52.3 22.7522 52.3 22.7548 52.3C22.7575 52.3 22.7602 52.3 22.7628 52.3C22.7655 52.3 22.7681 52.3 22.7708 52.3C22.7734 52.3 22.7761 52.3 22.7788 52.3C22.7814 52.3 22.7841 52.3 22.7867 52.3C22.7894 52.3 22.7921 52.3 22.7947 52.3C22.7974 52.3 22.8 52.3 22.8027 52.3C22.8054 52.3 22.808 52.3 22.8107 52.3C22.8133 52.3 22.816 52.3 22.8187 52.3C22.8213 52.3 22.824 52.3 22.8267 52.3C22.8293 52.3 22.832 52.3 22.8347 52.3C22.8373 52.3 22.84 52.3 22.8427 52.3C22.8453 52.3 22.848 52.3 22.8507 52.3C22.8533 52.3 22.856 52.3 22.8587 52.3C22.8613 52.3 22.864 52.3 22.8667 52.3C22.8693 52.3 22.872 52.3 22.8747 52.3C22.8773 52.3 22.88 52.3 22.8827 52.3C22.8854 52.3 22.888 52.3 22.8907 52.3C22.8934 52.3 22.896 52.3 22.8987 52.3C22.9014 52.3 22.9041 52.3 22.9067 52.3C22.9094 52.3 22.9121 52.3 22.9148 52.3C22.9174 52.3 22.9201 52.3 22.9228 52.3C22.9254 52.3 22.9281 52.3 22.9308 52.3C22.9335 52.3 22.9362 52.3 22.9388 52.3C22.9415 52.3 22.9442 52.3 22.9469 52.3C22.9495 52.3 22.9522 52.3 22.9549 52.3C22.9576 52.3 22.9603 52.3 22.9629 52.3C22.9656 52.3 22.9683 52.3 22.971 52.3C22.9737 52.3 22.9763 52.3 22.979 52.3C22.9817 52.3 22.9844 52.3 22.9871 52.3C22.9897 52.3 22.9924 52.3 22.9951 52.3C22.9978 52.3 23.0005 52.3 23.0032 52.3C23.0059 52.3 23.0085 52.3 23.0112 52.3C23.0139 52.3 23.0166 52.3 23.0193 52.3C23.022 52.3 23.0247 52.3 23.0273 52.3C23.03 52.3 23.0327 52.3 23.0354 52.3C23.0381 52.3 23.0408 52.3 23.0435 52.3C23.0462 52.3 23.0488 52.3 23.0515 52.3C23.0542 52.3 23.0569 52.3 23.0596 52.3C23.0623 52.3 23.065 52.3 23.0677 52.3C23.0704 52.3 23.0731 52.3 23.0758 52.3C23.0784 52.3 23.0811 52.3 23.0838 52.3C23.0865 52.3 23.0892 52.3 23.0919 52.3C23.0946 52.3 23.0973 52.3 23.1 52.3C23.1027 52.3 23.1054 52.3 23.1081 52.3C23.1108 52.3 23.1135 52.3 23.1162 52.3C23.1189 52.3 23.1216 52.3 23.1243 52.3C23.127 52.3 23.1297 52.3 23.1324 52.3C23.1351 52.3 23.1378 52.3 23.1405 52.3C23.1432 52.3 23.1459 52.3 23.1486 52.3C23.1513 52.3 23.154 52.3 23.1567 52.3C23.1594 52.3 23.1621 52.3 23.1648 52.3C23.1675 52.3 23.1702 52.3 23.1729 52.3C23.1756 52.3 23.1783 52.3 23.181 52.3C23.1837 52.3 23.1864 52.3 23.1891 52.3C23.1918 52.3 23.1945 52.3 23.1972 52.3C23.1999 52.3 23.2026 52.3 23.2053 52.3C23.2081 52.3 23.2108 52.3 23.2135 52.3C23.2162 52.3 23.2189 52.3 23.2216 52.3C23.2243 52.3 23.227 52.3 23.2297 52.3C23.2324 52.3 23.2351 52.3 23.2379 52.3C23.2406 52.3 23.2433 52.3 23.246 52.3C23.2487 52.3 23.2514 52.3 23.2541 52.3C23.2568 52.3 23.2596 52.3 23.2623 52.3C23.265 52.3 23.2677 52.3 23.2704 52.3C23.2731 52.3 23.2758 52.3 23.2786 52.3C23.2813 52.3 23.284 52.3 23.2867 52.3C23.2894 52.3 23.2921 52.3 23.2949 52.3C23.2976 52.3 23.3003 52.3 23.303 52.3C23.3057 52.3 23.3084 52.3 23.3112 52.3C23.3139 52.3 23.3166 52.3 23.3193 52.3C23.322 52.3 23.3248 52.3 23.3275 52.3C23.3302 52.3 23.3329 52.3 23.3356 52.3C23.3384 52.3 23.3411 52.3 23.3438 52.3C23.3465 52.3 23.3493 52.3 23.352 52.3C23.3547 52.3 23.3574 52.3 23.3602 52.3C23.3629 52.3 23.3656 52.3 23.3683 52.3C23.3711 52.3 23.3738 52.3 23.3765 52.3C23.3792 52.3 23.382 52.3 23.3847 52.3C23.3874 52.3 23.3901 52.3 23.3929 52.3C23.3956 52.3 23.3983 52.3 23.4011 52.3C23.4038 52.3 23.4065 52.3 23.4092 52.3C23.412 52.3 23.4147 52.3 23.4174 52.3C23.4202 52.3 23.4229 52.3 23.4256 52.3C23.4284 52.3 23.4311 52.3 23.4338 52.3C23.4366 52.3 23.4393 52.3 23.442 52.3C23.4448 52.3 23.4475 52.3 23.4502 52.3C23.453 52.3 23.4557 52.3 23.4584 52.3C23.4612 52.3 23.4639 52.3 23.4666 52.3C23.4694 52.3 23.4721 52.3 23.4749 52.3C23.4776 52.3 23.4803 52.3 23.4831 52.3C23.4858 52.3 23.4886 52.3 23.4913 52.3C23.494 52.3 23.4968 52.3 23.4995 52.3C23.5022 52.3 23.505 52.3 23.5077 52.3C23.5105 52.3 23.5132 52.3 23.516 52.3C23.5187 52.3 23.5214 52.3 23.5242 52.3C23.5269 52.3 23.5297 52.3 23.5324 52.3C23.5352 52.3 23.5379 52.3 23.5406 52.3C23.5434 52.3 23.5461 52.3 23.5489 52.3C23.5516 52.3 23.5544 52.3 23.5571 52.3C23.5599 52.3 23.5626 52.3 23.5654 52.3C23.5681 52.3 23.5709 52.3 23.5736 52.3C23.5764 52.3 23.5791 52.3 23.5819 52.3C23.5846 52.3 23.5874 52.3 23.5901 52.3C23.5929 52.3 23.5956 52.3 23.5984 52.3C23.6011 52.3 23.6039 52.3 23.6066 52.3C23.6094 52.3 23.6121 52.3 23.6149 52.3C23.6176 52.3 23.6204 52.3 23.6231 52.3C23.6259 52.3 23.6286 52.3 23.6314 52.3C23.6341 52.3 23.6369 52.3 23.6397 52.3C23.6424 52.3 23.6452 52.3 23.6479 52.3C23.6507 52.3 23.6534 52.3 23.6562 52.3C23.659 52.3 23.6617 52.3 23.6645 52.3C23.6672 52.3 23.67 52.3 23.6727 52.3C23.6755 52.3 23.6783 52.3 23.681 52.3C23.6838 52.3 23.6865 52.3 23.6893 52.3C23.6921 52.3 23.6948 52.3 23.6976 52.3C23.7004 52.3 23.7031 52.3 23.7059 52.3C23.7086 52.3 23.7114 52.3 23.7142 52.3C23.7169 52.3 23.7197 52.3 23.7225 52.3C23.7252 52.3 23.728 52.3 23.7308 52.3C23.7335 52.3 23.7363 52.3 23.7391 52.3C23.7418 52.3 23.7446 52.3 23.7474 52.3C23.7501 52.3 23.7529 52.3 23.7557 52.3C23.7584 52.3 23.7612 52.3 23.764 52.3C23.7667 52.3 23.7695 52.3 23.7723 52.3C23.7751 52.3 23.7778 52.3 23.7806 52.3C23.7834 52.3 23.7861 52.3 23.7889 52.3C23.7917 52.3 23.7945 52.3 23.7972 52.3C23.8 52.3 23.8028 52.3 23.8055 52.3C23.8083 52.3 23.8111 52.3 23.8139 52.3C23.8166 52.3 23.8194 52.3 23.8222 52.3C23.825 52.3 23.8278 52.3 23.8305 52.3C23.8333 52.3 23.8361 52.3 23.8389 52.3C23.8416 52.3 23.8444 52.3 23.8472 52.3C23.85 52.3 23.8528 52.3 23.8555 52.3C23.8583 52.3 23.8611 52.3 23.8639 52.3C23.8667 52.3 23.8694 52.3 23.8722 52.3C23.875 52.3 23.8778 52.3 23.8806 52.3C23.8833 52.3 23.8861 52.3 23.8889 52.3C23.8917 52.3 23.8945 52.3 23.8973 52.3C23.9 52.3 23.9028 52.3 23.9056 52.3C23.9084 52.3 23.9112 52.3 23.914 52.3C23.9168 52.3 23.9195 52.3 23.9223 52.3C23.9251 52.3 23.9279 52.3 23.9307 52.3C23.9335 52.3 23.9363 52.3 23.9391 52.3C23.9418 52.3 23.9446 52.3 23.9474 52.3C23.9502 52.3 23.953 52.3 23.9558 52.3C23.9586 52.3 23.9614 52.3 23.9642 52.3C23.967 52.3 23.9697 52.3 23.9725 52.3C23.9753 52.3 23.9781 52.3 23.9809 52.3C23.9837 52.3 23.9865 52.3 23.9893 52.3C23.9921 52.3 23.9949 52.3 23.9977 52.3C24.0005 52.3 24.0033 52.3 24.0061 52.3C24.0089 52.3 24.0117 52.3 24.0145 52.3C24.0173 52.3 24.0201 52.3 24.0229 52.3C24.0257 52.3 24.0284 52.3 24.0312 52.3C24.034 52.3 24.0368 52.3 24.0396 52.3C24.0424 52.3 24.0452 52.3 24.048 52.3C24.0508 52.3 24.0536 52.3 24.0564 52.3C24.0592 52.3 24.0621 52.3 24.0649 52.3C24.0677 52.3 24.0705 52.3 24.0733 52.3C24.0761 52.3 24.0789 52.3 24.0817 52.3C24.0845 52.3 24.0873 52.3 24.0901 52.3C24.0929 52.3 24.0957 52.3 24.0985 52.3C24.1013 52.3 24.1041 52.3 24.1069 52.3C24.1097 52.3 24.1125 52.3 24.1153 52.3C24.1182 52.3 24.121 52.3 24.1238 52.3C24.1266 52.3 24.1294 52.3 24.1322 52.3C24.135 52.3 24.1378 52.3 24.1406 52.3C24.1434 52.3 24.1463 52.3 24.1491 52.3C24.1519 52.3 24.1547 52.3 24.1575 52.3C24.1603 52.3 24.1631 52.3 24.1659 52.3C24.1688 52.3 24.1716 52.3 24.1744 52.3C24.1772 52.3 24.18 52.3 24.1828 52.3C24.1856 52.3 24.1885 52.3 24.1913 52.3C24.1941 52.3 24.1969 52.3 24.1997 52.3C24.2025 52.3 24.2054 52.3 24.2082 52.3C24.211 52.3 24.2138 52.3 24.2166 52.3C24.2194 52.3 24.2223 52.3 24.2251 52.3C24.2279 52.3 24.2307 52.3 24.2335 52.3C24.2364 52.3 24.2392 52.3 24.242 52.3C24.2448 52.3 24.2477 52.3 24.2505 52.3C24.2533 52.3 24.2561 52.3 24.2589 52.3C24.2618 52.3 24.2646 52.3 24.2674 52.3C24.2702 52.3 24.2731 52.3 24.2759 52.3C24.2787 52.3 24.2815 52.3 24.2844 52.3C24.2872 52.3 24.29 52.3 24.2929 52.3C24.2957 52.3 24.2985 52.3 24.3013 52.3C24.3042 52.3 24.307 52.3 24.3098 52.3C24.3126 52.3 24.3155 52.3 24.3183 52.3C24.3211 52.3 24.324 52.3 24.3268 52.3C24.3296 52.3 24.3325 52.3 24.3353 52.3C24.3381 52.3 24.341 52.3 24.3438 52.3C24.3466 52.3 24.3495 52.3 24.3523 52.3C24.3551 52.3 24.358 52.3 24.3608 52.3C24.3636 52.3 24.3665 52.3 24.3693 52.3C24.3721 52.3 24.375 52.3 24.3778 52.3C24.3806 52.3 24.3835 52.3 24.3863 52.3C24.3892 52.3 24.392 52.3 24.3948 52.3C24.3977 52.3 24.4005 52.3 24.4033 52.3C24.4062 52.3 24.409 52.3 24.4119 52.3C24.4147 52.3 24.4175 52.3 24.4204 52.3C24.4232 52.3 24.4261 52.3 24.4289 52.3C24.4317 52.3 24.4346 52.3 24.4374 52.3C24.4403 52.3 24.4431 52.3 24.446 52.3C24.4488 52.3 24.4517 52.3 24.4545 52.3C24.4573 52.3 24.4602 52.3 24.463 52.3C24.4659 52.3 24.4687 52.3 24.4716 52.3C24.4744 52.3 24.4773 52.3 24.4801 52.3C24.483 52.3 24.4858 52.3 24.4887 52.3C24.4915 52.3 24.4943 52.3 24.4972 52.3C24.5 52.3 24.5029 52.3 24.5057 52.3C24.5086 52.3 24.5114 52.3 24.5143 52.3C24.5171 52.3 24.52 52.3 24.5229 52.3C24.5257 52.3 24.5286 52.3 24.5314 52.3C24.5343 52.3 24.5371 52.3 24.54 52.3C24.5428 52.3 24.5457 52.3 24.5485 52.3C24.5514 52.3 24.5542 52.3 24.5571 52.3C24.56 52.3 24.5628 52.3 24.5657 52.3C24.5685 52.3 24.5714 52.3 24.5742 52.3C24.5771 52.3 24.58 52.3 24.5828 52.3C24.5857 52.3 24.5885 52.3 24.5914 52.3C24.5942 52.3 24.5971 52.3 24.6 52.3C24.6028 52.3 24.6057 52.3 24.6085 52.3C24.6114 52.3 24.6143 52.3 24.6171 52.3C24.62 52.3 24.6229 52.3 24.6257 52.3C24.6286 52.3 24.6314 52.3 24.6343 52.3C24.6372 52.3 24.64 52.3 24.6429 52.3C24.6458 52.3 24.6486 52.3 24.6515 52.3C24.6544 52.3 24.6572 52.3 24.6601 52.3C24.663 52.3 24.6658 52.3 24.6687 52.3C24.6716 52.3 24.6744 52.3 24.6773 52.3C24.6802 52.3 24.683 52.3 24.6859 52.3C24.6888 52.3 24.6916 52.3 24.6945 52.3C24.6974 52.3 24.7003 52.3 24.7031 52.3C24.706 52.3 24.7089 52.3 24.7117 52.3C24.7146 52.3 24.7175 52.3 24.7204 52.3C24.7232 52.3 24.7261 52.3 24.729 52.3C24.7319 52.3 24.7347 52.3 24.7376 52.3C24.7405 52.3 24.7434 52.3 24.7462 52.3C24.7491 52.3 24.752 52.3 24.7549 52.3C24.7577 52.3 24.7606 52.3 24.7635 52.3C24.7664 52.3 24.7692 52.3 24.7721 52.3C24.775 52.3 24.7779 52.3 24.7808 52.3C24.7836 52.3 24.7865 52.3 24.7894 52.3C24.7923 52.3 24.7952 52.3 24.798 52.3C24.8009 52.3 24.8038 52.3 24.8067 52.3C24.8096 52.3 24.8124 52.3 24.8153 52.3C24.8182 52.3 24.8211 52.3 24.824 52.3C24.8269 52.3 24.8297 52.3 24.8326 52.3C24.8355 52.3 24.8384 52.3 24.8413 52.3C24.8442 52.3 24.8471 52.3 24.8499 52.3C24.8528 52.3 24.8557 52.3 24.8586 52.3C24.8615 52.3 24.8644 52.3 24.8673 52.3C24.8702 52.3 24.8731 52.3 24.8759 52.3C24.8788 52.3 24.8817 52.3 24.8846 52.3C24.8875 52.3 24.8904 52.3 24.8933 52.3C24.8962 52.3 24.8991 52.3 24.902 52.3C24.9048 52.3 24.9077 52.3 24.9106 52.3C24.9135 52.3 24.9164 52.3 24.9193 52.3C24.9222 52.3 24.9251 52.3 24.928 52.3C24.9309 52.3 24.9338 52.3 24.9367 52.3C24.9396 52.3 24.9425 52.3 24.9454 52.3C24.9483 52.3 24.9512 52.3 24.9541 52.3C24.957 52.3 24.9599 52.3 24.9628 52.3C24.9657 52.3 24.9686 52.3 24.9715 52.3C24.9744 52.3 24.9773 52.3 24.9802 52.3C24.9831 52.3 24.986 52.3 24.9889 52.3C24.9918 52.3 24.9947 52.3 24.9976 52.3C25.0005 52.3 25.0034 52.3 25.0063 52.3C25.0092 52.3 25.0121 52.3 25.015 52.3C25.0179 52.3 25.0208 52.3 25.0237 52.3C25.0266 52.3 25.0295 52.3 25.0324 52.3C25.0353 52.3 25.0382 52.3 25.0411 52.3C25.044 52.3 25.0469 52.3 25.0499 52.3C25.0528 52.3 25.0557 52.3 25.0586 52.3C25.0615 52.3 25.0644 52.3 25.0673 52.3C25.0702 52.3 25.0731 52.3 25.076 52.3C25.0789 52.3 25.0819 52.3 25.0848 52.3C25.0877 52.3 25.0906 52.3 25.0935 52.3C25.0964 52.3 25.0993 52.3 25.1022 52.3C25.1052 52.3 25.1081 52.3 25.111 52.3C25.1139 52.3 25.1168 52.3 25.1197 52.3C25.1226 52.3 25.1256 52.3 25.1285 52.3C25.1314 52.3 25.1343 52.3 25.1372 52.3C25.1401 52.3 25.1431 52.3 25.146 52.3C25.1489 52.3 25.1518 52.3 25.1547 52.3C25.1576 52.3 25.1606 52.3 25.1635 52.3C25.1664 52.3 25.1693 52.3 25.1722 52.3C25.1752 52.3 25.1781 52.3 25.181 52.3C25.1839 52.3 25.1869 52.3 25.1898 52.3C25.1927 52.3 25.1956 52.3 25.1985 52.3C25.2015 52.3 25.2044 52.3 25.2073 52.3C25.2102 52.3 25.2132 52.3 25.2161 52.3C25.219 52.3 25.2219 52.3 25.2249 52.3C25.2278 52.3 25.2307 52.3 25.2336 52.3C25.2366 52.3 25.2395 52.3 25.2424 52.3C25.2454 52.3 25.2483 52.3 25.2512 52.3C25.2541 52.3 25.2571 52.3 25.26 52.3V50.3C25.2571 50.3 25.2541 50.3 25.2512 50.3C25.2483 50.3 25.2454 50.3 25.2424 50.3C25.2395 50.3 25.2366 50.3 25.2336 50.3C25.2307 50.3 25.2278 50.3 25.2249 50.3C25.2219 50.3 25.219 50.3 25.2161 50.3C25.2132 50.3 25.2102 50.3 25.2073 50.3C25.2044 50.3 25.2015 50.3 25.1985 50.3C25.1956 50.3 25.1927 50.3 25.1898 50.3C25.1869 50.3 25.1839 50.3 25.181 50.3C25.1781 50.3 25.1752 50.3 25.1722 50.3C25.1693 50.3 25.1664 50.3 25.1635 50.3C25.1606 50.3 25.1576 50.3 25.1547 50.3C25.1518 50.3 25.1489 50.3 25.146 50.3C25.1431 50.3 25.1401 50.3 25.1372 50.3C25.1343 50.3 25.1314 50.3 25.1285 50.3C25.1256 50.3 25.1226 50.3 25.1197 50.3C25.1168 50.3 25.1139 50.3 25.111 50.3C25.1081 50.3 25.1052 50.3 25.1022 50.3C25.0993 50.3 25.0964 50.3 25.0935 50.3C25.0906 50.3 25.0877 50.3 25.0848 50.3C25.0819 50.3 25.0789 50.3 25.076 50.3C25.0731 50.3 25.0702 50.3 25.0673 50.3C25.0644 50.3 25.0615 50.3 25.0586 50.3C25.0557 50.3 25.0528 50.3 25.0499 50.3C25.0469 50.3 25.044 50.3 25.0411 50.3C25.0382 50.3 25.0353 50.3 25.0324 50.3C25.0295 50.3 25.0266 50.3 25.0237 50.3C25.0208 50.3 25.0179 50.3 25.015 50.3C25.0121 50.3 25.0092 50.3 25.0063 50.3C25.0034 50.3 25.0005 50.3 24.9976 50.3C24.9947 50.3 24.9918 50.3 24.9889 50.3C24.986 50.3 24.9831 50.3 24.9802 50.3C24.9773 50.3 24.9744 50.3 24.9715 50.3C24.9686 50.3 24.9657 50.3 24.9628 50.3C24.9599 50.3 24.957 50.3 24.9541 50.3C24.9512 50.3 24.9483 50.3 24.9454 50.3C24.9425 50.3 24.9396 50.3 24.9367 50.3C24.9338 50.3 24.9309 50.3 24.928 50.3C24.9251 50.3 24.9222 50.3 24.9193 50.3C24.9164 50.3 24.9135 50.3 24.9106 50.3C24.9077 50.3 24.9048 50.3 24.902 50.3C24.8991 50.3 24.8962 50.3 24.8933 50.3C24.8904 50.3 24.8875 50.3 24.8846 50.3C24.8817 50.3 24.8788 50.3 24.8759 50.3C24.8731 50.3 24.8702 50.3 24.8673 50.3C24.8644 50.3 24.8615 50.3 24.8586 50.3C24.8557 50.3 24.8528 50.3 24.8499 50.3C24.8471 50.3 24.8442 50.3 24.8413 50.3C24.8384 50.3 24.8355 50.3 24.8326 50.3C24.8297 50.3 24.8269 50.3 24.824 50.3C24.8211 50.3 24.8182 50.3 24.8153 50.3C24.8124 50.3 24.8096 50.3 24.8067 50.3C24.8038 50.3 24.8009 50.3 24.798 50.3C24.7952 50.3 24.7923 50.3 24.7894 50.3C24.7865 50.3 24.7836 50.3 24.7808 50.3C24.7779 50.3 24.775 50.3 24.7721 50.3C24.7692 50.3 24.7664 50.3 24.7635 50.3C24.7606 50.3 24.7577 50.3 24.7549 50.3C24.752 50.3 24.7491 50.3 24.7462 50.3C24.7434 50.3 24.7405 50.3 24.7376 50.3C24.7347 50.3 24.7319 50.3 24.729 50.3C24.7261 50.3 24.7232 50.3 24.7204 50.3C24.7175 50.3 24.7146 50.3 24.7117 50.3C24.7089 50.3 24.706 50.3 24.7031 50.3C24.7003 50.3 24.6974 50.3 24.6945 50.3C24.6916 50.3 24.6888 50.3 24.6859 50.3C24.683 50.3 24.6802 50.3 24.6773 50.3C24.6744 50.3 24.6716 50.3 24.6687 50.3C24.6658 50.3 24.663 50.3 24.6601 50.3C24.6572 50.3 24.6544 50.3 24.6515 50.3C24.6486 50.3 24.6458 50.3 24.6429 50.3C24.64 50.3 24.6372 50.3 24.6343 50.3C24.6314 50.3 24.6286 50.3 24.6257 50.3C24.6229 50.3 24.62 50.3 24.6171 50.3C24.6143 50.3 24.6114 50.3 24.6085 50.3C24.6057 50.3 24.6028 50.3 24.6 50.3C24.5971 50.3 24.5942 50.3 24.5914 50.3C24.5885 50.3 24.5857 50.3 24.5828 50.3C24.58 50.3 24.5771 50.3 24.5742 50.3C24.5714 50.3 24.5685 50.3 24.5657 50.3C24.5628 50.3 24.56 50.3 24.5571 50.3C24.5542 50.3 24.5514 50.3 24.5485 50.3C24.5457 50.3 24.5428 50.3 24.54 50.3C24.5371 50.3 24.5343 50.3 24.5314 50.3C24.5286 50.3 24.5257 50.3 24.5229 50.3C24.52 50.3 24.5171 50.3 24.5143 50.3C24.5114 50.3 24.5086 50.3 24.5057 50.3C24.5029 50.3 24.5 50.3 24.4972 50.3C24.4943 50.3 24.4915 50.3 24.4887 50.3C24.4858 50.3 24.483 50.3 24.4801 50.3C24.4773 50.3 24.4744 50.3 24.4716 50.3C24.4687 50.3 24.4659 50.3 24.463 50.3C24.4602 50.3 24.4573 50.3 24.4545 50.3C24.4517 50.3 24.4488 50.3 24.446 50.3C24.4431 50.3 24.4403 50.3 24.4374 50.3C24.4346 50.3 24.4317 50.3 24.4289 50.3C24.4261 50.3 24.4232 50.3 24.4204 50.3C24.4175 50.3 24.4147 50.3 24.4119 50.3C24.409 50.3 24.4062 50.3 24.4033 50.3C24.4005 50.3 24.3977 50.3 24.3948 50.3C24.392 50.3 24.3892 50.3 24.3863 50.3C24.3835 50.3 24.3806 50.3 24.3778 50.3C24.375 50.3 24.3721 50.3 24.3693 50.3C24.3665 50.3 24.3636 50.3 24.3608 50.3C24.358 50.3 24.3551 50.3 24.3523 50.3C24.3495 50.3 24.3466 50.3 24.3438 50.3C24.341 50.3 24.3381 50.3 24.3353 50.3C24.3325 50.3 24.3296 50.3 24.3268 50.3C24.324 50.3 24.3211 50.3 24.3183 50.3C24.3155 50.3 24.3126 50.3 24.3098 50.3C24.307 50.3 24.3042 50.3 24.3013 50.3C24.2985 50.3 24.2957 50.3 24.2929 50.3C24.29 50.3 24.2872 50.3 24.2844 50.3C24.2815 50.3 24.2787 50.3 24.2759 50.3C24.2731 50.3 24.2702 50.3 24.2674 50.3C24.2646 50.3 24.2618 50.3 24.2589 50.3C24.2561 50.3 24.2533 50.3 24.2505 50.3C24.2477 50.3 24.2448 50.3 24.242 50.3C24.2392 50.3 24.2364 50.3 24.2335 50.3C24.2307 50.3 24.2279 50.3 24.2251 50.3C24.2223 50.3 24.2194 50.3 24.2166 50.3C24.2138 50.3 24.211 50.3 24.2082 50.3C24.2054 50.3 24.2025 50.3 24.1997 50.3C24.1969 50.3 24.1941 50.3 24.1913 50.3C24.1885 50.3 24.1856 50.3 24.1828 50.3C24.18 50.3 24.1772 50.3 24.1744 50.3C24.1716 50.3 24.1688 50.3 24.1659 50.3C24.1631 50.3 24.1603 50.3 24.1575 50.3C24.1547 50.3 24.1519 50.3 24.1491 50.3C24.1463 50.3 24.1434 50.3 24.1406 50.3C24.1378 50.3 24.135 50.3 24.1322 50.3C24.1294 50.3 24.1266 50.3 24.1238 50.3C24.121 50.3 24.1182 50.3 24.1153 50.3C24.1125 50.3 24.1097 50.3 24.1069 50.3C24.1041 50.3 24.1013 50.3 24.0985 50.3C24.0957 50.3 24.0929 50.3 24.0901 50.3C24.0873 50.3 24.0845 50.3 24.0817 50.3C24.0789 50.3 24.0761 50.3 24.0733 50.3C24.0705 50.3 24.0677 50.3 24.0649 50.3C24.0621 50.3 24.0592 50.3 24.0564 50.3C24.0536 50.3 24.0508 50.3 24.048 50.3C24.0452 50.3 24.0424 50.3 24.0396 50.3C24.0368 50.3 24.034 50.3 24.0312 50.3C24.0284 50.3 24.0257 50.3 24.0229 50.3C24.0201 50.3 24.0173 50.3 24.0145 50.3C24.0117 50.3 24.0089 50.3 24.0061 50.3C24.0033 50.3 24.0005 50.3 23.9977 50.3C23.9949 50.3 23.9921 50.3 23.9893 50.3C23.9865 50.3 23.9837 50.3 23.9809 50.3C23.9781 50.3 23.9753 50.3 23.9725 50.3C23.9697 50.3 23.967 50.3 23.9642 50.3C23.9614 50.3 23.9586 50.3 23.9558 50.3C23.953 50.3 23.9502 50.3 23.9474 50.3C23.9446 50.3 23.9418 50.3 23.9391 50.3C23.9363 50.3 23.9335 50.3 23.9307 50.3C23.9279 50.3 23.9251 50.3 23.9223 50.3C23.9195 50.3 23.9168 50.3 23.914 50.3C23.9112 50.3 23.9084 50.3 23.9056 50.3C23.9028 50.3 23.9 50.3 23.8973 50.3C23.8945 50.3 23.8917 50.3 23.8889 50.3C23.8861 50.3 23.8833 50.3 23.8806 50.3C23.8778 50.3 23.875 50.3 23.8722 50.3C23.8694 50.3 23.8667 50.3 23.8639 50.3C23.8611 50.3 23.8583 50.3 23.8555 50.3C23.8528 50.3 23.85 50.3 23.8472 50.3C23.8444 50.3 23.8416 50.3 23.8389 50.3C23.8361 50.3 23.8333 50.3 23.8305 50.3C23.8278 50.3 23.825 50.3 23.8222 50.3C23.8194 50.3 23.8166 50.3 23.8139 50.3C23.8111 50.3 23.8083 50.3 23.8055 50.3C23.8028 50.3 23.8 50.3 23.7972 50.3C23.7945 50.3 23.7917 50.3 23.7889 50.3C23.7861 50.3 23.7834 50.3 23.7806 50.3C23.7778 50.3 23.7751 50.3 23.7723 50.3C23.7695 50.3 23.7667 50.3 23.764 50.3C23.7612 50.3 23.7584 50.3 23.7557 50.3C23.7529 50.3 23.7501 50.3 23.7474 50.3C23.7446 50.3 23.7418 50.3 23.7391 50.3C23.7363 50.3 23.7335 50.3 23.7308 50.3C23.728 50.3 23.7252 50.3 23.7225 50.3C23.7197 50.3 23.7169 50.3 23.7142 50.3C23.7114 50.3 23.7086 50.3 23.7059 50.3C23.7031 50.3 23.7004 50.3 23.6976 50.3C23.6948 50.3 23.6921 50.3 23.6893 50.3C23.6865 50.3 23.6838 50.3 23.681 50.3C23.6783 50.3 23.6755 50.3 23.6727 50.3C23.67 50.3 23.6672 50.3 23.6645 50.3C23.6617 50.3 23.659 50.3 23.6562 50.3C23.6534 50.3 23.6507 50.3 23.6479 50.3C23.6452 50.3 23.6424 50.3 23.6397 50.3C23.6369 50.3 23.6341 50.3 23.6314 50.3C23.6286 50.3 23.6259 50.3 23.6231 50.3C23.6204 50.3 23.6176 50.3 23.6149 50.3C23.6121 50.3 23.6094 50.3 23.6066 50.3C23.6039 50.3 23.6011 50.3 23.5984 50.3C23.5956 50.3 23.5929 50.3 23.5901 50.3C23.5874 50.3 23.5846 50.3 23.5819 50.3C23.5791 50.3 23.5764 50.3 23.5736 50.3C23.5709 50.3 23.5681 50.3 23.5654 50.3C23.5626 50.3 23.5599 50.3 23.5571 50.3C23.5544 50.3 23.5516 50.3 23.5489 50.3C23.5461 50.3 23.5434 50.3 23.5406 50.3C23.5379 50.3 23.5352 50.3 23.5324 50.3C23.5297 50.3 23.5269 50.3 23.5242 50.3C23.5214 50.3 23.5187 50.3 23.516 50.3C23.5132 50.3 23.5105 50.3 23.5077 50.3C23.505 50.3 23.5022 50.3 23.4995 50.3C23.4968 50.3 23.494 50.3 23.4913 50.3C23.4886 50.3 23.4858 50.3 23.4831 50.3C23.4803 50.3 23.4776 50.3 23.4749 50.3C23.4721 50.3 23.4694 50.3 23.4666 50.3C23.4639 50.3 23.4612 50.3 23.4584 50.3C23.4557 50.3 23.453 50.3 23.4502 50.3C23.4475 50.3 23.4448 50.3 23.442 50.3C23.4393 50.3 23.4366 50.3 23.4338 50.3C23.4311 50.3 23.4284 50.3 23.4256 50.3C23.4229 50.3 23.4202 50.3 23.4174 50.3C23.4147 50.3 23.412 50.3 23.4092 50.3C23.4065 50.3 23.4038 50.3 23.4011 50.3C23.3983 50.3 23.3956 50.3 23.3929 50.3C23.3901 50.3 23.3874 50.3 23.3847 50.3C23.382 50.3 23.3792 50.3 23.3765 50.3C23.3738 50.3 23.3711 50.3 23.3683 50.3C23.3656 50.3 23.3629 50.3 23.3602 50.3C23.3574 50.3 23.3547 50.3 23.352 50.3C23.3493 50.3 23.3465 50.3 23.3438 50.3C23.3411 50.3 23.3384 50.3 23.3356 50.3C23.3329 50.3 23.3302 50.3 23.3275 50.3C23.3248 50.3 23.322 50.3 23.3193 50.3C23.3166 50.3 23.3139 50.3 23.3112 50.3C23.3084 50.3 23.3057 50.3 23.303 50.3C23.3003 50.3 23.2976 50.3 23.2949 50.3C23.2921 50.3 23.2894 50.3 23.2867 50.3C23.284 50.3 23.2813 50.3 23.2786 50.3C23.2758 50.3 23.2731 50.3 23.2704 50.3C23.2677 50.3 23.265 50.3 23.2623 50.3C23.2596 50.3 23.2568 50.3 23.2541 50.3C23.2514 50.3 23.2487 50.3 23.246 50.3C23.2433 50.3 23.2406 50.3 23.2379 50.3C23.2351 50.3 23.2324 50.3 23.2297 50.3C23.227 50.3 23.2243 50.3 23.2216 50.3C23.2189 50.3 23.2162 50.3 23.2135 50.3C23.2108 50.3 23.2081 50.3 23.2053 50.3C23.2026 50.3 23.1999 50.3 23.1972 50.3C23.1945 50.3 23.1918 50.3 23.1891 50.3C23.1864 50.3 23.1837 50.3 23.181 50.3C23.1783 50.3 23.1756 50.3 23.1729 50.3C23.1702 50.3 23.1675 50.3 23.1648 50.3C23.1621 50.3 23.1594 50.3 23.1567 50.3C23.154 50.3 23.1513 50.3 23.1486 50.3C23.1459 50.3 23.1432 50.3 23.1405 50.3C23.1378 50.3 23.1351 50.3 23.1324 50.3C23.1297 50.3 23.127 50.3 23.1243 50.3C23.1216 50.3 23.1189 50.3 23.1162 50.3C23.1135 50.3 23.1108 50.3 23.1081 50.3C23.1054 50.3 23.1027 50.3 23.1 50.3C23.0973 50.3 23.0946 50.3 23.0919 50.3C23.0892 50.3 23.0865 50.3 23.0838 50.3C23.0811 50.3 23.0784 50.3 23.0758 50.3C23.0731 50.3 23.0704 50.3 23.0677 50.3C23.065 50.3 23.0623 50.3 23.0596 50.3C23.0569 50.3 23.0542 50.3 23.0515 50.3C23.0488 50.3 23.0462 50.3 23.0435 50.3C23.0408 50.3 23.0381 50.3 23.0354 50.3C23.0327 50.3 23.03 50.3 23.0273 50.3C23.0247 50.3 23.022 50.3 23.0193 50.3C23.0166 50.3 23.0139 50.3 23.0112 50.3C23.0085 50.3 23.0059 50.3 23.0032 50.3C23.0005 50.3 22.9978 50.3 22.9951 50.3C22.9924 50.3 22.9897 50.3 22.9871 50.3C22.9844 50.3 22.9817 50.3 22.979 50.3C22.9763 50.3 22.9737 50.3 22.971 50.3C22.9683 50.3 22.9656 50.3 22.9629 50.3C22.9603 50.3 22.9576 50.3 22.9549 50.3C22.9522 50.3 22.9495 50.3 22.9469 50.3C22.9442 50.3 22.9415 50.3 22.9388 50.3C22.9362 50.3 22.9335 50.3 22.9308 50.3C22.9281 50.3 22.9254 50.3 22.9228 50.3C22.9201 50.3 22.9174 50.3 22.9148 50.3C22.9121 50.3 22.9094 50.3 22.9067 50.3C22.9041 50.3 22.9014 50.3 22.8987 50.3C22.896 50.3 22.8934 50.3 22.8907 50.3C22.888 50.3 22.8854 50.3 22.8827 50.3C22.88 50.3 22.8773 50.3 22.8747 50.3C22.872 50.3 22.8693 50.3 22.8667 50.3C22.864 50.3 22.8613 50.3 22.8587 50.3C22.856 50.3 22.8533 50.3 22.8507 50.3C22.848 50.3 22.8453 50.3 22.8427 50.3C22.84 50.3 22.8373 50.3 22.8347 50.3C22.832 50.3 22.8293 50.3 22.8267 50.3C22.824 50.3 22.8213 50.3 22.8187 50.3C22.816 50.3 22.8133 50.3 22.8107 50.3C22.808 50.3 22.8054 50.3 22.8027 50.3C22.8 50.3 22.7974 50.3 22.7947 50.3C22.7921 50.3 22.7894 50.3 22.7867 50.3C22.7841 50.3 22.7814 50.3 22.7788 50.3C22.7761 50.3 22.7734 50.3 22.7708 50.3C22.7681 50.3 22.7655 50.3 22.7628 50.3C22.7602 50.3 22.7575 50.3 22.7548 50.3C22.7522 50.3 22.7495 50.3 22.7469 50.3C22.7442 50.3 22.7416 50.3 22.7389 50.3C22.7363 50.3 22.7336 50.3 22.731 50.3C22.7283 50.3 22.7256 50.3 22.723 50.3C22.7203 50.3 22.7177 50.3 22.715 50.3C22.7124 50.3 22.7097 50.3 22.7071 50.3C22.7044 50.3 22.7018 50.3 22.6991 50.3C22.6965 50.3 22.6938 50.3 22.6912 50.3C22.6885 50.3 22.6859 50.3 22.6832 50.3C22.6806 50.3 22.678 50.3 22.6753 50.3C22.6727 50.3 22.67 50.3 22.6674 50.3C22.6647 50.3 22.6621 50.3 22.6594 50.3C22.6568 50.3 22.6541 50.3 22.6515 50.3C22.6489 50.3 22.6462 50.3 22.6436 50.3C22.6409 50.3 22.6383 50.3 22.6356 50.3C22.633 50.3 22.6304 50.3 22.6277 50.3C22.6251 50.3 22.6224 50.3 22.6198 50.3C22.6171 50.3 22.6145 50.3 22.6119 50.3C22.6092 50.3 22.6066 50.3 22.604 50.3C22.6013 50.3 22.5987 50.3 22.596 50.3C22.5934 50.3 22.5908 50.3 22.5881 50.3C22.5855 50.3 22.5829 50.3 22.5802 50.3C22.5776 50.3 22.5749 50.3 22.5723 50.3C22.5697 50.3 22.567 50.3 22.5644 50.3C22.5618 50.3 22.5591 50.3 22.5565 50.3C22.5539 50.3 22.5512 50.3 22.5486 50.3C22.546 50.3 22.5433 50.3 22.5407 50.3C22.5381 50.3 22.5355 50.3 22.5328 50.3C22.5302 50.3 22.5276 50.3 22.5249 50.3C22.5223 50.3 22.5197 50.3 22.517 50.3C22.5144 50.3 22.5118 50.3 22.5092 50.3C22.5065 50.3 22.5039 50.3 22.5013 50.3C22.4987 50.3 22.496 50.3 22.4934 50.3C22.4908 50.3 22.4882 50.3 22.4855 50.3C22.4829 50.3 22.4803 50.3 22.4777 50.3C22.475 50.3 22.4724 50.3 22.4698 50.3C22.4672 50.3 22.4645 50.3 22.4619 50.3C22.4593 50.3 22.4567 50.3 22.454 50.3C22.4514 50.3 22.4488 50.3 22.4462 50.3C22.4436 50.3 22.4409 50.3 22.4383 50.3C22.4357 50.3 22.4331 50.3 22.4305 50.3C22.4279 50.3 22.4252 50.3 22.4226 50.3C22.42 50.3 22.4174 50.3 22.4148 50.3C22.4122 50.3 22.4095 50.3 22.4069 50.3C22.4043 50.3 22.4017 50.3 22.3991 50.3C22.3965 50.3 22.3938 50.3 22.3912 50.3C22.3886 50.3 22.386 50.3 22.3834 50.3C22.3808 50.3 22.3782 50.3 22.3756 50.3C22.3729 50.3 22.3703 50.3 22.3677 50.3C22.3651 50.3 22.3625 50.3 22.3599 50.3C22.3573 50.3 22.3547 50.3 22.3521 50.3C22.3494 50.3 22.3468 50.3 22.3442 50.3C22.3416 50.3 22.339 50.3 22.3364 50.3C22.3338 50.3 22.3312 50.3 22.3286 50.3C22.326 50.3 22.3234 50.3 22.3208 50.3C22.3182 50.3 22.3156 50.3 22.313 50.3C22.3103 50.3 22.3077 50.3 22.3051 50.3C22.3025 50.3 22.2999 50.3 22.2973 50.3C22.2947 50.3 22.2921 50.3 22.2895 50.3C22.2869 50.3 22.2843 50.3 22.2817 50.3C22.2791 50.3 22.2765 50.3 22.2739 50.3C22.2713 50.3 22.2687 50.3 22.2661 50.3C22.2635 50.3 22.2609 50.3 22.2583 50.3C22.2557 50.3 22.2531 50.3 22.2505 50.3C22.2479 50.3 22.2453 50.3 22.2427 50.3C22.2401 50.3 22.2375 50.3 22.2349 50.3C22.2324 50.3 22.2298 50.3 22.2272 50.3C22.2246 50.3 22.222 50.3 22.2194 50.3C22.2168 50.3 22.2142 50.3 22.2116 50.3C22.209 50.3 22.2064 50.3 22.2038 50.3C22.2012 50.3 22.1986 50.3 22.1961 50.3C22.1935 50.3 22.1909 50.3 22.1883 50.3C22.1857 50.3 22.1831 50.3 22.1805 50.3C22.1779 50.3 22.1753 50.3 22.1727 50.3C22.1702 50.3 22.1676 50.3 22.165 50.3C22.1624 50.3 22.1598 50.3 22.1572 50.3C22.1546 50.3 22.152 50.3 22.1495 50.3C22.1469 50.3 22.1443 50.3 22.1417 50.3C22.1391 50.3 22.1365 50.3 22.134 50.3C22.1314 50.3 22.1288 50.3 22.1262 50.3C22.1236 50.3 22.121 50.3 22.1185 50.3C22.1159 50.3 22.1133 50.3 22.1107 50.3C22.1081 50.3 22.1056 50.3 22.103 50.3C22.1004 50.3 22.0978 50.3 22.0952 50.3C22.0927 50.3 22.0901 50.3 22.0875 50.3C22.0849 50.3 22.0823 50.3 22.0798 50.3C22.0772 50.3 22.0746 50.3 22.072 50.3C22.0695 50.3 22.0669 50.3 22.0643 50.3C22.0617 50.3 22.0592 50.3 22.0566 50.3C22.054 50.3 22.0514 50.3 22.0489 50.3C22.0463 50.3 22.0437 50.3 22.0411 50.3C22.0386 50.3 22.036 50.3 22.0334 50.3C22.0309 50.3 22.0283 50.3 22.0257 50.3C22.0231 50.3 22.0206 50.3 22.018 50.3C22.0154 50.3 22.0129 50.3 22.0103 50.3C22.0077 50.3 22.0052 50.3 22.0026 50.3C22 50.3 21.9975 50.3 21.9949 50.3C21.9923 50.3 21.9898 50.3 21.9872 50.3C21.9846 50.3 21.9821 50.3 21.9795 50.3C21.9769 50.3 21.9744 50.3 21.9718 50.3C21.9692 50.3 21.9667 50.3 21.9641 50.3C21.9615 50.3 21.959 50.3 21.9564 50.3C21.9539 50.3 21.9513 50.3 21.9487 50.3C21.9462 50.3 21.9436 50.3 21.941 50.3C21.9385 50.3 21.9359 50.3 21.9334 50.3C21.9308 50.3 21.9282 50.3 21.9257 50.3C21.9231 50.3 21.9206 50.3 21.918 50.3C21.9155 50.3 21.9129 50.3 21.9103 50.3C21.9078 50.3 21.9052 50.3 21.9027 50.3C21.9001 50.3 21.8976 50.3 21.895 50.3C21.8924 50.3 21.8899 50.3 21.8873 50.3C21.8848 50.3 21.8822 50.3 21.8797 50.3C21.8771 50.3 21.8746 50.3 21.872 50.3C21.8695 50.3 21.8669 50.3 21.8644 50.3C21.8618 50.3 21.8593 50.3 21.8567 50.3C21.8542 50.3 21.8516 50.3 21.8491 50.3C21.8465 50.3 21.844 50.3 21.8414 50.3C21.8389 50.3 21.8363 50.3 21.8338 50.3C21.8312 50.3 21.8287 50.3 21.8261 50.3C21.8236 50.3 21.821 50.3 21.8185 50.3C21.8159 50.3 21.8134 50.3 21.8108 50.3C21.8083 50.3 21.8058 50.3 21.8032 50.3C21.8007 50.3 21.7981 50.3 21.7956 50.3C21.793 50.3 21.7905 50.3 21.7879 50.3C21.7854 50.3 21.7829 50.3 21.7803 50.3C21.7778 50.3 21.7752 50.3 21.7727 50.3C21.7702 50.3 21.7676 50.3 21.7651 50.3C21.7625 50.3 21.76 50.3 21.7575 50.3C21.7549 50.3 21.7524 50.3 21.7498 50.3C21.7473 50.3 21.7448 50.3 21.7422 50.3C21.7397 50.3 21.7372 50.3 21.7346 50.3C21.7321 50.3 21.7296 50.3 21.727 50.3C21.7245 50.3 21.7219 50.3 21.7194 50.3C21.7169 50.3 21.7143 50.3 21.7118 50.3C21.7093 50.3 21.7067 50.3 21.7042 50.3C21.7017 50.3 21.6992 50.3 21.6966 50.3C21.6941 50.3 21.6916 50.3 21.689 50.3C21.6865 50.3 21.684 50.3 21.6814 50.3C21.6789 50.3 21.6764 50.3 21.6738 50.3C21.6713 50.3 21.6688 50.3 21.6663 50.3C21.6637 50.3 21.6612 50.3 21.6587 50.3C21.6562 50.3 21.6536 50.3 21.6511 50.3C21.6486 50.3 21.6461 50.3 21.6435 50.3C21.641 50.3 21.6385 50.3 21.636 50.3C21.6334 50.3 21.6309 50.3 21.6284 50.3C21.6259 50.3 21.6233 50.3 21.6208 50.3C21.6183 50.3 21.6158 50.3 21.6132 50.3C21.6107 50.3 21.6082 50.3 21.6057 50.3C21.6032 50.3 21.6006 50.3 21.5981 50.3C21.5956 50.3 21.5931 50.3 21.5906 50.3C21.588 50.3 21.5855 50.3 21.583 50.3C21.5805 50.3 21.578 50.3 21.5755 50.3C21.5729 50.3 21.5704 50.3 21.5679 50.3C21.5654 50.3 21.5629 50.3 21.5604 50.3C21.5579 50.3 21.5553 50.3 21.5528 50.3C21.5503 50.3 21.5478 50.3 21.5453 50.3C21.5428 50.3 21.5403 50.3 21.5377 50.3C21.5352 50.3 21.5327 50.3 21.5302 50.3C21.5277 50.3 21.5252 50.3 21.5227 50.3C21.5202 50.3 21.5177 50.3 21.5151 50.3C21.5126 50.3 21.5101 50.3 21.5076 50.3C21.5051 50.3 21.5026 50.3 21.5001 50.3C21.4976 50.3 21.4951 50.3 21.4926 50.3C21.4901 50.3 21.4876 50.3 21.4851 50.3C21.4825 50.3 21.48 50.3 21.4775 50.3C21.475 50.3 21.4725 50.3 21.47 50.3C21.4675 50.3 21.465 50.3 21.4625 50.3C21.46 50.3 21.4575 50.3 21.455 50.3C21.4525 50.3 21.45 50.3 21.4475 50.3C21.445 50.3 21.4425 50.3 21.44 50.3C21.4375 50.3 21.435 50.3 21.4325 50.3C21.43 50.3 21.4275 50.3 21.425 50.3C21.4225 50.3 21.42 50.3 21.4175 50.3C21.415 50.3 21.4125 50.3 21.41 50.3C21.4075 50.3 21.405 50.3 21.4025 50.3C21.4 50.3 21.3975 50.3 21.395 50.3C21.3925 50.3 21.3901 50.3 21.3876 50.3C21.3851 50.3 21.3826 50.3 21.3801 50.3C21.3776 50.3 21.3751 50.3 21.3726 50.3C21.3701 50.3 21.3676 50.3 21.3651 50.3C21.3626 50.3 21.3601 50.3 21.3577 50.3C21.3552 50.3 21.3527 50.3 21.3502 50.3C21.3477 50.3 21.3452 50.3 21.3427 50.3C21.3402 50.3 21.3377 50.3 21.3353 50.3C21.3328 50.3 21.3303 50.3 21.3278 50.3C21.3253 50.3 21.3228 50.3 21.3203 50.3C21.3179 50.3 21.3154 50.3 21.3129 50.3C21.3104 50.3 21.3079 50.3 21.3054 50.3C21.3029 50.3 21.3005 50.3 21.298 50.3C21.2955 50.3 21.293 50.3 21.2905 50.3C21.288 50.3 21.2856 50.3 21.2831 50.3C21.2806 50.3 21.2781 50.3 21.2756 50.3C21.2732 50.3 21.2707 50.3 21.2682 50.3C21.2657 50.3 21.2632 50.3 21.2608 50.3C21.2583 50.3 21.2558 50.3 21.2533 50.3C21.2509 50.3 21.2484 50.3 21.2459 50.3C21.2434 50.3 21.241 50.3 21.2385 50.3C21.236 50.3 21.2335 50.3 21.2311 50.3C21.2286 50.3 21.2261 50.3 21.2236 50.3C21.2212 50.3 21.2187 50.3 21.2162 50.3C21.2137 50.3 21.2113 50.3 21.2088 50.3C21.2063 50.3 21.2038 50.3 21.2014 50.3C21.1989 50.3 21.1964 50.3 21.194 50.3C21.1915 50.3 21.189 50.3 21.1866 50.3C21.1841 50.3 21.1816 50.3 21.1792 50.3C21.1767 50.3 21.1742 50.3 21.1717 50.3C21.1693 50.3 21.1668 50.3 21.1643 50.3C21.1619 50.3 21.1594 50.3 21.1569 50.3C21.1545 50.3 21.152 50.3 21.1496 50.3C21.1471 50.3 21.1446 50.3 21.1422 50.3C21.1397 50.3 21.1372 50.3 21.1348 50.3C21.1323 50.3 21.1298 50.3 21.1274 50.3C21.1249 50.3 21.1225 50.3 21.12 50.3V52.3ZM25.3 52.2992C26.7989 52.2392 28.3579 52.1793 29.977 52.1193L29.903 50.1207C28.2821 50.1807 26.7211 50.2408 25.22 50.3008L25.3 52.2992ZM29.977 52.1193C31.597 52.0593 33.217 51.9993 34.837 51.9393L34.763 49.9407C33.143 50.0007 31.523 50.0607 29.903 50.1207L29.977 52.1193ZM34.8357 51.9394C36.5313 51.8788 38.6736 51.758 41.2596 51.5776L41.1204 49.5824C38.5464 49.762 36.4287 49.8812 34.7643 49.9406L34.8357 51.9394ZM41.258 51.5777C43.8951 51.3979 47.1627 51.188 51.0614 50.9481L50.9386 48.9519C47.0373 49.192 43.7649 49.4021 41.122 49.5823L41.258 51.5777ZM50 49.95L50 62.1H52L52 49.95H50ZM69.4605 63V64H70.1634L70.4014 63.3387L69.4605 63ZM51.9105 63L50.9753 62.6459L50.4627 64H51.9105V63ZM75.7605 -4.29153e-06V-1H75.0699L74.8253 -0.354054L75.7605 -4.29153e-06ZM93.7605 -4.29153e-06L94.6958 -0.354054L94.4512 -1H93.7605V-4.29153e-06ZM117.611 63V64H119.058L118.546 62.6459L117.611 63ZM100.061 63L99.1197 63.3387L99.3577 64H100.061V63ZM96.0105 51.75L96.9514 51.4113L96.7134 50.75H96.0105V51.75ZM73.5105 51.75V50.75H72.8077L72.5697 51.4113L73.5105 51.75ZM77.5605 40.05L76.6139 39.7277L76.1638 41.05H77.5605V40.05ZM91.9605 40.05V41.05H93.3573L92.9072 39.7277L91.9605 40.05ZM84.7605 18.9L85.7072 18.5777L84.7605 15.797L83.8139 18.5777L84.7605 18.9ZM69.4605 62H51.9105V64H69.4605V62ZM52.8458 63.3541L76.6958 0.354046L74.8253 -0.354054L50.9753 62.6459L52.8458 63.3541ZM75.7605 0.999996L93.7605 0.999996V-1L75.7605 -1V0.999996ZM92.8253 0.354046L116.675 63.3541L118.546 62.6459L94.6958 -0.354054L92.8253 0.354046ZM117.611 62H100.061V64H117.611V62ZM101.001 62.6613L96.9514 51.4113L95.0697 52.0887L99.1197 63.3387L101.001 62.6613ZM96.0105 50.75H73.5105V52.75H96.0105V50.75ZM72.5697 51.4113L68.5197 62.6613L70.4014 63.3387L74.4514 52.0887L72.5697 51.4113ZM77.5605 41.05H91.9605V39.05H77.5605V41.05ZM92.9072 39.7277L85.7072 18.5777L83.8139 19.2223L91.0139 40.3723L92.9072 39.7277ZM83.8139 18.5777L76.6139 39.7277L78.5072 40.3723L85.7072 19.2223L83.8139 18.5777ZM120.217 49.95L120.272 48.9515L119.217 48.8938V49.95H120.217ZM156.847 50.13L156.14 49.4229L156.14 49.4229L156.847 50.13ZM158.107 38.7H159.107V37.7H158.107V38.7ZM123.637 34.47L122.923 35.1696L122.93 35.1771L122.937 35.1845L123.637 34.47ZM123.637 4.32L124.344 5.02711L124.344 5.02711L123.637 4.32ZM168.997 -4.29153e-06H169.997V-1H168.997V-4.29153e-06ZM168.997 12.6V13.6H169.997V12.6H168.997ZM170.167 59.76L169.46 59.0529L169.46 59.0529L170.167 59.76ZM147.487 63.72L147.444 64.7191L147.452 64.7194L147.487 63.72ZM139.207 63.36L139.158 64.3588L139.164 64.3591L139.207 63.36ZM120.217 62.1H119.217V63.0208L120.135 63.0966L120.217 62.1ZM120.162 50.9485C136.599 51.8483 147.756 52.3 153.607 52.3V50.3C147.819 50.3 136.715 49.8517 120.272 48.9515L120.162 50.9485ZM153.607 52.3C155.182 52.3 156.542 51.8491 157.554 50.8371L156.14 49.4229C155.592 49.9709 154.792 50.3 153.607 50.3V52.3ZM157.554 50.8371C158.612 49.7792 159.107 48.3989 159.107 46.8H157.107C157.107 47.9611 156.762 48.8008 156.14 49.4229L157.554 50.8371ZM159.107 46.8V38.7H157.107V46.8H159.107ZM158.107 37.7L137.407 37.7V39.7L158.107 39.7V37.7ZM137.407 37.7C131.226 37.7 126.948 36.3124 124.337 33.7555L122.937 35.1845C126.086 38.2676 130.988 39.7 137.407 39.7V37.7ZM124.352 33.7704C121.795 31.1591 120.407 26.8811 120.407 20.7L118.407 20.7C118.407 27.1189 119.839 32.0209 122.923 35.1696L124.352 33.7704ZM120.407 20.7V18L118.407 18V20.7L120.407 20.7ZM120.407 18C120.407 11.8165 121.796 7.57559 124.344 5.02711L122.93 3.61289C119.838 6.7044 118.407 11.5835 118.407 18L120.407 18ZM124.344 5.02711C126.956 2.41535 131.231 0.999996 137.407 0.999996V-1C130.983 -1 126.078 0.464642 122.93 3.61289L124.344 5.02711ZM137.407 0.999996L168.997 0.999996V-1L137.407 -1V0.999996ZM167.997 -4.29153e-06V12.6H169.997V-4.29153e-06L167.997 -4.29153e-06ZM168.997 11.6L141.007 11.6V13.6L168.997 13.6V11.6ZM141.007 11.6C139.053 11.6 137.404 12.0892 136.25 13.2429C135.096 14.3966 134.607 16.0459 134.607 18H136.607C136.607 16.3541 137.018 15.3034 137.664 14.6571C138.31 14.0108 139.361 13.6 141.007 13.6V11.6ZM134.607 18V19.8H136.607V18H134.607ZM134.607 19.8C134.607 21.7541 135.096 23.4034 136.25 24.5571C137.404 25.7108 139.053 26.2 141.007 26.2V24.2C139.361 24.2 138.31 23.7892 137.664 23.1429C137.018 22.4966 136.607 21.4459 136.607 19.8H134.607ZM141.007 26.2L157.207 26.2V24.2L141.007 24.2V26.2ZM157.207 26.2C162.954 26.2 166.964 27.5512 169.46 30.0471L170.874 28.6329C167.85 25.6088 163.22 24.2 157.207 24.2V26.2ZM169.46 30.0471C171.956 32.543 173.307 36.5527 173.307 42.3H175.307C175.307 36.2873 173.898 31.657 170.874 28.6329L169.46 30.0471ZM173.307 42.3V46.8H175.307V42.3H173.307ZM173.307 46.8C173.307 52.5473 171.956 56.557 169.46 59.0529L170.874 60.4671C173.898 57.443 175.307 52.8127 175.307 46.8H173.307ZM169.46 59.0529C166.964 61.5488 162.954 62.9 157.207 62.9V64.9C163.22 64.9 167.85 63.4912 170.874 60.4671L169.46 59.0529ZM157.207 62.9C154.16 62.9 150.932 62.8403 147.522 62.7206L147.452 64.7194C150.882 64.8397 154.134 64.9 157.207 64.9V62.9ZM147.53 62.7209L139.25 62.3609L139.164 64.3591L147.444 64.7191L147.53 62.7209ZM139.256 62.3612C133.148 62.0618 126.829 61.6425 120.299 61.1034L120.135 63.0966C126.685 63.6375 133.026 64.0582 139.158 64.3588L139.256 62.3612ZM121.217 62.1V49.95H119.217V62.1H121.217ZM232.35 63V64H233.35V63H232.35ZM182.4 63H181.4V64H182.4V63ZM182.4 -4.29153e-06V-1L181.4 -1V-4.29153e-06H182.4ZM232.35 -4.29153e-06H233.35V-1H232.35V-4.29153e-06ZM232.35 12.6V13.6H233.35V12.6H232.35ZM198.6 12.6V11.6H197.6V12.6H198.6ZM198.6 24.75H197.6V25.75H198.6V24.75ZM225.15 24.75H226.15V23.75H225.15V24.75ZM225.15 37.35V38.35H226.15V37.35H225.15ZM198.6 37.35V36.35H197.6V37.35H198.6ZM198.6 50.4H197.6V51.4H198.6V50.4ZM232.35 50.4H233.35V49.4H232.35V50.4ZM232.35 62L182.4 62V64L232.35 64V62ZM183.4 63V-4.29153e-06H181.4V63H183.4ZM182.4 0.999996L232.35 0.999996V-1L182.4 -1V0.999996ZM231.35 -4.29153e-06V12.6H233.35V-4.29153e-06H231.35ZM232.35 11.6L198.6 11.6V13.6L232.35 13.6V11.6ZM197.6 12.6V24.75H199.6V12.6H197.6ZM198.6 25.75H225.15V23.75H198.6V25.75ZM224.15 24.75V37.35H226.15V24.75H224.15ZM225.15 36.35H198.6V38.35H225.15V36.35ZM197.6 37.35V50.4H199.6V37.35H197.6ZM198.6 51.4H232.35V49.4H198.6V51.4ZM231.35 50.4V63H233.35V50.4H231.35Z" fill="black"/>
</svg>
