<svg width="335" height="64" viewBox="0 0 335 64" fill="none" xmlns="http://www.w3.org/2000/svg">
<path opacity="0.75" fill-rule="evenodd" clip-rule="evenodd" d="M-5.6001 63V-2H30.4999C37.4437 -2 42.8688 -0.185742 46.5971 3.60296C50.3857 7.33128 52.1999 12.7563 52.1999 19.7V41.3C52.1999 48.2487 50.3833 53.7009 46.597 57.4871C42.8678 61.2163 37.4429 63 30.4999 63H-5.6001ZM45.8899 4.31C42.4099 0.770001 37.2799 -1 30.4999 -1H-4.6001V62H30.4999C37.2799 62 42.4099 60.26 45.8899 56.78C49.4299 53.24 51.1999 48.08 51.1999 41.3V19.7C51.1999 12.92 49.4299 7.79 45.8899 4.31ZM32.2678 14.3321C31.1715 13.2358 29.4458 12.6 26.8999 12.6H12.5999V48.4H26.8999C29.4458 48.4 31.1715 47.7642 32.2678 46.6679C33.3641 45.5716 33.9999 43.8459 33.9999 41.3V19.7C33.9999 17.1541 33.3641 15.4284 32.2678 14.3321ZM26.8999 49.4C32.2999 49.4 34.9999 46.7 34.9999 41.3V19.7C34.9999 14.3 32.2999 11.6 26.8999 11.6H11.5999V49.4H26.8999ZM111.125 63H59.1753V-2H111.125V12.6H77.3753V22.75H103.925V37.35H77.3753V48.4H111.125V63ZM76.3753 49.4V36.35H102.925V23.75H76.3753V11.6H110.125V-1H60.1753V62H110.125V49.4H76.3753ZM114.414 47.8938L115.469 47.9515C131.912 48.8517 143.016 49.3 148.804 49.3C149.989 49.3 150.789 48.9709 151.337 48.4229C151.959 47.8008 152.304 46.9611 152.304 45.8V38.7H132.604C126.185 38.7 121.283 37.2676 118.135 34.1845L118.127 34.1772L118.12 34.1696C115.037 31.0209 113.604 26.1189 113.604 19.7V17C113.604 10.5835 115.036 5.70441 118.127 2.6129C121.275 -0.535354 126.181 -2 132.604 -2H165.194V12.6H136.204C134.558 12.6 133.508 13.0108 132.861 13.6571C132.215 14.3034 131.804 15.3541 131.804 17V18.8C131.804 20.4459 132.215 21.4966 132.861 22.1429C133.508 22.7892 134.558 23.2 136.204 23.2H152.404C158.417 23.2 163.047 24.6088 166.071 27.6329C169.095 30.657 170.504 35.2873 170.504 41.3V45.8C170.504 51.8127 169.095 56.443 166.071 59.4671C163.047 62.4912 158.417 63.9 152.404 63.9C149.331 63.9 146.079 63.8398 142.649 63.7194L142.641 63.7191L134.355 63.3588C128.223 63.0582 121.882 62.6375 115.332 62.0966L114.414 62.0208V47.8938ZM153.304 37.7V45.8C153.304 47.18 152.884 48.29 152.044 49.13C151.264 49.91 150.184 50.3 148.804 50.3C143.103 50.3 132.306 49.8682 116.414 49.0046C116.083 48.9866 115.75 48.9684 115.414 48.95V61.1C121.954 61.64 128.284 62.06 134.404 62.36L142.684 62.72C146.104 62.84 149.344 62.9 152.404 62.9C158.284 62.9 162.604 61.52 165.364 58.76C168.124 56 169.504 51.68 169.504 45.8V41.3C169.504 35.42 168.124 31.1 165.364 28.34C162.604 25.58 158.284 24.2 152.404 24.2H136.204C132.604 24.2 130.804 22.4 130.804 18.8V17C130.804 13.4 132.604 11.6 136.204 11.6H164.194V-1H132.604C126.304 -1 121.714 0.440001 118.834 3.32C116.014 6.14 114.604 10.7 114.604 17V19.7C114.604 26 116.014 30.59 118.834 33.47C121.714 36.29 126.304 37.7 132.604 37.7H153.304ZM208.297 63H173.897V48.4H181.997V12.6H173.897V-2H208.297V12.6H200.197V48.4H208.297V63ZM199.197 49.4V11.6H207.297V-1H174.897V11.6H182.997V49.4H174.897V62H207.297V49.4H199.197ZM270.39 61.5489L269.496 61.6443C255.428 63.1474 242.492 63.9 230.69 63.9C224.677 63.9 220.047 62.4912 217.023 59.4671C213.999 56.443 212.59 51.8127 212.59 45.8V17C212.59 10.5835 214.022 5.70441 217.113 2.6129C220.261 -0.535354 225.166 -2 231.59 -2H264.99V12.6H235.19C233.544 12.6 232.494 13.0108 231.847 13.6571C231.201 14.3034 230.79 15.3541 230.79 17V45.8C230.79 46.9647 231.109 47.8059 231.668 48.4222C232.284 48.9812 233.125 49.3 234.29 49.3C240.795 49.3 246.762 49.1664 252.19 48.8996V37.8H240.49V25H270.39V61.5489ZM253.19 36.8V49.85C247.49 50.15 241.19 50.3 234.29 50.3C232.91 50.3 231.8 49.91 230.96 49.13C230.18 48.29 229.79 47.18 229.79 45.8V17C229.79 13.4 231.59 11.6 235.19 11.6H263.99V-1H231.59C225.29 -1 220.7 0.440001 217.82 3.32C215 6.14 213.59 10.7 213.59 17V45.8C213.59 51.68 214.97 56 217.73 58.76C220.49 61.52 224.81 62.9 230.69 62.9C242.45 62.9 255.35 62.15 269.39 60.65V26H241.49V36.8H253.19ZM334.308 63H315.627L295.608 27.9656V63H277.408V-2H296.088L316.108 33.0345V-2H334.308V63ZM317.108 36.8L295.508 -1H278.408V62H294.608V24.2L316.208 62H333.308V-1H317.108V36.8Z" fill="white"/>
</svg>
