<svg width="279" height="119" viewBox="0 0 279 119" fill="none" xmlns="http://www.w3.org/2000/svg">
<path opacity="0.85" fill-rule="evenodd" clip-rule="evenodd" d="M27.0508 23H83.3008V2H0.0507812V107H27.0508V68.75H71.3008V47.75H27.0508V23ZM69.3008 49.75H25.0508V21H81.3008V4H2.05078V105H25.0508V66.75H69.3008V49.75ZM147.865 88.25L154.615 107H183.865L144.115 2H114.115L74.3652 107H103.615L110.365 88.25H147.865ZM102.21 105L108.96 86.25H149.271L156.021 105H180.97L142.734 4H115.497L77.2609 105H102.21ZM114.322 70.75L129.115 27.2939L143.909 70.75H114.322ZM141.115 68.75L129.115 33.5L117.115 68.75H141.115ZM245.449 110.5C245.436 110.337 245.43 110.17 245.43 110V108.5H252.93C263.43 108.5 271.03 106.15 275.73 101.45C280.53 96.65 282.93 89 282.93 78.5V30.5C282.93 20 280.53 12.4 275.73 7.7C271.03 2.9 263.43 0.5 252.93 0.5H215.43C204.93 0.5 197.28 2.9 192.48 7.7C187.78 12.4 185.43 20 185.43 30.5V78.5C185.43 89 187.78 96.65 192.48 101.45C197.28 106.15 204.93 108.5 215.43 108.5H219.93V110C219.93 116.8 221.98 122.25 226.08 126.35C230.18 130.45 235.43 132.5 241.83 132.5C248.23 132.5 254.93 132 261.93 131V115.25H250.68C249.18 115.25 247.93 114.75 246.93 113.75C246.043 112.863 245.549 111.78 245.449 110.5ZM259.93 117.25H250.68C248.685 117.25 246.915 116.564 245.515 115.164C244.116 113.765 243.43 111.995 243.43 110V106.5H252.93C263.197 106.5 270.159 104.193 274.315 100.036C278.579 95.7723 280.93 88.7526 280.93 78.5V30.5C280.93 20.2426 278.577 13.2871 274.33 9.12902L274.315 9.11429L274.301 9.09925C270.143 4.85269 263.187 2.5 252.93 2.5H215.43C205.177 2.5 198.157 4.85071 193.894 9.11421C189.737 13.2712 187.43 20.2329 187.43 30.5V78.5C187.43 88.7501 189.729 95.7716 193.894 100.036C198.158 104.2 205.18 106.5 215.43 106.5H221.93V110C221.93 116.368 223.833 121.275 227.494 124.936C231.178 128.62 235.9 130.5 241.83 130.5C247.603 130.5 253.636 130.086 259.93 129.256V117.25ZM255.094 22.3358C257.101 24.3431 257.93 27.1917 257.93 30.5V78.5C257.93 81.8083 257.101 84.6569 255.094 86.6642C253.087 88.6716 250.238 89.5 246.93 89.5H221.43C218.121 89.5 215.273 88.6716 213.265 86.6642C211.258 84.6569 210.43 81.8083 210.43 78.5V30.5C210.43 27.1917 211.258 24.3431 213.265 22.3358C215.273 20.3284 218.121 19.5 221.43 19.5H246.93C250.238 19.5 253.087 20.3284 255.094 22.3358ZM246.93 21.5C252.93 21.5 255.93 24.5 255.93 30.5V78.5C255.93 84.5 252.93 87.5 246.93 87.5H221.43C215.43 87.5 212.43 84.5 212.43 78.5V30.5C212.43 24.5 215.43 21.5 221.43 21.5H246.93Z" fill="black"/>
</svg>
