<svg width="271" height="83" viewBox="0 0 271 83" fill="none" xmlns="http://www.w3.org/2000/svg">
<path fill-rule="evenodd" clip-rule="evenodd" d="M42.2555 80.9999H0.655518V63.5999H10.5555V19.3999H0.655518V1.9999H42.2555V19.3999H32.3555V63.5999H42.2555V80.9999ZM31.3555 64.5999V18.3999H41.2555V2.9999H1.65552V18.3999H11.5555V64.5999H1.65552V79.9999H41.2555V64.5999H31.3555ZM119.247 80.9999H96.7666L71.9469 37.5655V80.9999H50.1469V1.9999H72.6272L97.4469 45.4343V1.9999H119.247V80.9999ZM98.4469 49.1999L72.0469 2.9999H51.1469V79.9999H70.9469V33.7999L97.3469 79.9999H118.247V2.9999H98.4469V49.1999ZM152.298 80.9999H130.498V1.9999H193.548V19.3999H152.298V35.5499H184.748V52.9499H152.298V80.9999ZM151.298 36.5499V18.3999H192.548V2.9999H131.498V79.9999H151.298V51.9499H183.748V36.5499H151.298ZM202.511 76.6371L202.504 76.6295C198.794 72.8408 197.048 66.9188 197.048 59.0999V23.8999C197.048 16.0834 198.793 10.191 202.511 6.47279C206.3 2.68455 212.225 0.899902 220.048 0.899902H247.548C255.364 0.899902 261.257 2.68103 264.975 6.47222C268.767 10.1902 270.548 16.0833 270.548 23.8999V59.0999C270.548 66.9236 268.764 72.8488 264.976 76.637C261.257 80.3552 255.365 82.0999 247.548 82.0999H220.048C212.23 82.0999 206.308 80.3542 202.519 76.6444L202.511 76.6371ZM247.391 19.657C246.545 18.8107 245.194 18.2999 243.148 18.2999H224.448C222.403 18.2999 221.052 18.8107 220.206 19.657C219.359 20.5033 218.848 21.854 218.848 23.8999V59.0999C218.848 61.1458 219.359 62.4965 220.206 63.3428C221.052 64.1891 222.403 64.6999 224.448 64.6999H243.148C245.194 64.6999 246.545 64.1891 247.391 63.3428C248.238 62.4965 248.748 61.1458 248.748 59.0999V23.8999C248.748 21.854 248.238 20.5033 247.391 19.657ZM243.148 17.2999C247.548 17.2999 249.748 19.4999 249.748 23.8999V59.0999C249.748 63.4999 247.548 65.6999 243.148 65.6999H224.448C220.048 65.6999 217.848 63.4999 217.848 59.0999V23.8999C217.848 19.4999 220.048 17.2999 224.448 17.2999H243.148ZM264.268 75.9299C267.789 72.4099 269.548 66.7999 269.548 59.0999V23.8999C269.548 16.1999 267.789 10.6266 264.268 7.1799C260.822 3.6599 255.248 1.8999 247.548 1.8999H220.048C212.348 1.8999 206.738 3.6599 203.218 7.1799C199.772 10.6266 198.048 16.1999 198.048 23.8999V59.0999C198.048 66.7999 199.772 72.4099 203.218 75.9299C206.738 79.3766 212.348 81.0999 220.048 81.0999H247.548C255.248 81.0999 260.822 79.3766 264.268 75.9299Z" fill="black"/>
</svg>
