<svg width="265" height="81" viewBox="0 0 265 81" fill="none" xmlns="http://www.w3.org/2000/svg">
<path opacity="0.85" fill-rule="evenodd" clip-rule="evenodd" d="M44.2553 79H0.655273V59.6H10.5553V17.4H0.655273V-1.99998H44.2553V17.4H34.3553V59.6H44.2553V79ZM32.3553 61.6V15.4H42.2553V2.28882e-05H2.65527V15.4H12.5553V61.6H2.65527V77H42.2553V61.6H32.3553ZM121.247 79H97.186L73.9467 38.3312V79H50.1467V-1.99998H74.2073L97.4467 38.6689V-1.99998H121.247V79ZM99.4467 46.2L73.0467 2.28882e-05H52.1467V77H71.9467V30.8L98.3467 77H119.247V2.28882e-05H99.4467V46.2ZM154.298 79H130.498V-1.99998H195.548V17.4H154.298V31.55H186.748V50.95H154.298V79ZM152.298 33.55V15.4H193.548V2.28882e-05H132.498V77H152.298V48.95H184.748V33.55H152.298ZM202.804 74.3443L202.789 74.3293C198.816 70.2719 197.048 64.0379 197.048 56.1V20.9C197.048 12.9671 198.814 6.7555 202.804 2.76581C206.861 -1.29069 213.101 -3.09998 221.048 -3.09998H248.548C256.481 -3.09998 262.693 -1.29723 266.682 2.76536C270.745 6.7545 272.548 12.9669 272.548 20.9V56.1C272.548 64.0474 270.739 70.2878 266.682 74.3442C262.693 78.3339 256.481 80.1 248.548 80.1H221.048C213.11 80.1 206.876 78.3319 202.819 74.3591L202.804 74.3443ZM247.684 17.3642C247.091 16.7716 246.04 16.3 244.148 16.3H225.448C223.557 16.3 222.505 16.7716 221.912 17.3642C221.32 17.9569 220.848 19.0083 220.848 20.9V56.1C220.848 57.9917 221.32 59.0432 221.912 59.6358C222.505 60.2285 223.557 60.7 225.448 60.7H244.148C246.04 60.7 247.091 60.2285 247.684 59.6358C248.277 59.0432 248.748 57.9917 248.748 56.1V20.9C248.748 19.0083 248.277 17.9569 247.684 17.3642ZM244.148 14.3C248.548 14.3 250.748 16.5 250.748 20.9V56.1C250.748 60.5 248.548 62.7 244.148 62.7H225.448C221.048 62.7 218.848 60.5 218.848 56.1V20.9C218.848 16.5 221.048 14.3 225.448 14.3H244.148ZM265.268 72.93C268.788 69.41 270.548 63.8 270.548 56.1V20.9C270.548 13.2 268.788 7.62669 265.268 4.18002C261.822 0.660024 256.248 -1.09998 248.548 -1.09998H221.048C213.348 -1.09998 207.738 0.660024 204.218 4.18002C200.772 7.62669 199.048 13.2 199.048 20.9V56.1C199.048 63.8 200.772 69.41 204.218 72.93C207.738 76.3767 213.348 78.1 221.048 78.1H248.548C256.248 78.1 261.822 76.3767 265.268 72.93Z" fill="black"/>
</svg>
