<svg width="179" height="67" viewBox="0 0 179 67" fill="none" xmlns="http://www.w3.org/2000/svg">
<path opacity="0.75" fill-rule="evenodd" clip-rule="evenodd" d="M1.50647 50.2854L2.55629 50.3425C18.9241 51.2319 29.9765 51.6748 35.7384 51.6748C36.9181 51.6748 37.7142 51.3497 38.2597 50.8082C38.8789 50.1936 39.2223 49.364 39.2223 48.2167V41.2018H19.6129C13.2235 41.2018 8.34396 39.7865 5.20975 36.7404L5.20226 36.7331L5.19493 36.7257C2.12601 33.6147 0.700195 28.7714 0.700195 22.4293V19.7617C0.700195 13.422 2.125 8.60134 5.2023 5.54685C8.33608 2.4363 13.2187 0.989196 19.6129 0.989196H52.0531V15.4144H23.1963C21.558 15.4144 20.5121 15.8202 19.8688 16.4588C19.2254 17.0974 18.8165 18.1355 18.8165 19.7617V21.5401C18.8165 23.1662 19.2254 24.2044 19.8688 24.843C20.5121 25.4815 21.558 25.8874 23.1963 25.8874H39.3219C45.3069 25.8874 49.916 27.2794 52.9262 30.2672C55.9363 33.2551 57.3387 37.8299 57.3387 43.7706V48.2167C57.3387 54.1574 55.9363 58.7323 52.9262 61.7202C49.916 64.708 45.3069 66.1 39.3219 66.1C36.263 66.1 33.0262 66.0404 29.6116 65.9215L29.6033 65.9212L21.3559 65.5653C15.2522 65.2683 8.94018 64.8526 2.41997 64.3182L1.50647 64.2433V50.2854ZM40.2177 40.2138V48.2167C40.2177 49.5802 39.7997 50.6769 38.9635 51.5069C38.1871 52.2775 37.1121 52.6629 35.7384 52.6629C30.0634 52.6629 19.3164 52.2362 3.49728 51.3829C3.16768 51.3651 2.83588 51.3472 2.50188 51.329V63.3335C9.01182 63.867 15.3127 64.282 21.4046 64.5784L29.6465 64.9341C33.0508 65.0527 36.2759 65.112 39.3219 65.112C45.1748 65.112 49.475 63.7485 52.2223 61.0215C54.9696 58.2946 56.3433 54.0263 56.3433 48.2167V43.7706C56.3433 37.9611 54.9696 33.6928 52.2223 30.9658C49.475 28.2389 45.1748 26.8754 39.3219 26.8754H23.1963C19.6129 26.8754 17.8211 25.097 17.8211 21.5401V19.7617C17.8211 16.2048 19.6129 14.4263 23.1963 14.4263H51.0577V1.97722H19.6129C13.3418 1.97722 8.77292 3.39998 5.90616 6.24549C3.09912 9.03171 1.6956 13.5371 1.6956 19.7617V22.4293C1.6956 28.6539 3.09912 33.1889 5.90616 36.0344C8.77292 38.8206 13.3418 40.2138 19.6129 40.2138H40.2177ZM115.115 65.2108H63.4036V0.989196H115.115V15.4144H81.52V25.4428H107.948V39.8679H81.52V50.7856H115.115V65.2108ZM80.5246 51.7736V38.8799H106.953V26.4308H80.5246V14.4263H114.119V1.97722H64.399V64.2227H114.119V51.7736H80.5246ZM122.98 61.6313L122.973 61.6239C119.904 58.5129 118.478 53.6696 118.478 47.3275V18.8724C118.478 12.5328 119.903 7.71211 122.98 4.65762C126.114 1.54708 130.997 0.0999756 137.391 0.0999756H159.788C166.174 0.0999756 171.031 1.54376 174.108 4.65743C177.246 7.71175 178.7 12.5329 178.7 18.8724V47.3275C178.7 53.6743 177.242 58.5207 174.108 61.6312C171.031 64.6857 166.174 66.1 159.788 66.1H137.391C131.002 66.1 126.122 64.6847 122.988 61.6386L122.98 61.6313ZM159.532 15.5696C158.888 14.931 157.842 14.5251 156.204 14.5251H140.974C139.336 14.5251 138.29 14.931 137.647 15.5696C137.004 16.2081 136.595 17.2463 136.595 18.8724V47.3275C136.595 48.9537 137.004 49.9918 137.647 50.6304C138.29 51.269 139.336 51.6748 140.974 51.6748H156.204C157.842 51.6748 158.888 51.269 159.532 50.6304C160.175 49.9918 160.584 48.9537 160.584 47.3275V18.8724C160.584 17.2463 160.175 16.2082 159.532 15.5696ZM156.204 13.5371C159.788 13.5371 161.579 15.3155 161.579 18.8724V47.3275C161.579 50.8844 159.788 52.6629 156.204 52.6629H140.974C137.391 52.6629 135.599 50.8844 135.599 47.3275V18.8724C135.599 15.3155 137.391 13.5371 140.974 13.5371H156.204ZM173.405 60.9326C176.271 58.0871 177.705 53.5521 177.705 47.3275V18.8724C177.705 12.6479 176.271 8.14249 173.405 5.35626C170.598 2.51075 166.059 1.088 159.788 1.088H137.391C131.12 1.088 126.551 2.51075 123.684 5.35626C120.877 8.14249 119.474 12.6479 119.474 18.8724V47.3275C119.474 53.5521 120.877 58.0871 123.684 60.9326C126.551 63.7188 131.12 65.112 137.391 65.112H159.788C166.059 65.112 170.598 63.7188 173.405 60.9326Z" fill="white"/>
</svg>
